<svg id="Layer_0_degree" data-name="Layer 0 degree" xmlns="http://www.w3.org/2000/svg" viewBox="0 0 1920 1005.71"><title>map</title><g id="B2"><path d="M93,924.89V666.83c0-21.55,9.47-27.54,23.14-32.86,38.59-15,917.16-353,917.16-353S1449.88,79.14,1500.47,55c50.08-23.91,99,1.45,99,59.86V224.22h125.38c66.94,0,106.21,56.49,106.21,106.26V903c0,35.8-26.63,57.81-60.31,57.81h-1639C106.3,960.76,93,940,93,924.89Z" fill="#bcbec0" stroke="#888" stroke-miterlimit="10" stroke-width="40"/><path d="M93.9,923.94V666c0-21.54,9.46-27.53,23.13-32.84,38.56-15,916.68-352.78,916.68-352.78S1450.08,78.63,1500.64,54.49c50-23.91,99,1.44,99,59.83V223.64h125.32c66.9,0,106.15,56.46,106.15,106.2V902c0,35.78-26.61,57.78-60.28,57.78H132.65C107.19,959.8,93.9,939,93.9,923.94Z" fill="#e6e7e8" stroke="#414042" stroke-miterlimit="10" stroke-width="0.2"/><rect x="1393.68" y="576.21" width="84.95" height="133.08" fill="#fff" stroke="#6d6e71" stroke-miterlimit="10" stroke-width="0.25"/><rect x="1398.55" y="581.34" width="37.23" height="14.84" fill="#ffe6a9" stroke="#58595b" stroke-miterlimit="10" stroke-width="0.2"/><path d="M1830.49,889.66H93.32v35.86c0,13.07,12.84,34.28,37,34.28H1767.5c39.5,0,62.92-25.18,62.92-58.68C1830.42,896.1,1830.49,892.56,1830.49,889.66Z" fill="none" stroke="#231f20" stroke-miterlimit="10" stroke-width="0.25"/><path d="M1767.06,329.84a42.15,42.15,0,1,1-42.15-42.14,42.15,42.15,0,0,1,42.15,42.14" fill="#fff"/><rect x="1478.63" y="330.41" width="65.57" height="58.47" fill="#fff" stroke="#6d6e71" stroke-miterlimit="10" stroke-width="0.25"/><rect x="1544.2" y="330.41" width="27.74" height="58.37" fill="#fff" stroke="#6d6e71" stroke-miterlimit="10" stroke-width="0.25"/><rect x="1478.63" y="388.88" width="93.31" height="19.77" fill="#fff" stroke="#6d6e71" stroke-miterlimit="10" stroke-width="0.25"/><path d="M1767.06,329.84a42.15,42.15,0,1,1-42.15-42.14A42.15,42.15,0,0,1,1767.06,329.84Z" fill="none" stroke="#6d6e71" stroke-miterlimit="10" stroke-width="0.75"/><path d="M1703.09,274.82A59.18,59.18,0,1,1,1724.91,389" fill="none" stroke="#6d6e71" stroke-miterlimit="10" stroke-width="0.5"/><path d="M1697.24,260.84a74.34,74.34,0,1,1,27.67,143.33" fill="none" stroke="#6d6e71" stroke-miterlimit="10" stroke-width="0.5"/><path d="M1724.91,418.48a88.64,88.64,0,1,0-32.79-171s-19.15,4.86-38.29,31.08" fill="none" stroke="#6d6e71" stroke-miterlimit="10" stroke-width="0.5"/><path d="M1640.78,267.23a104.88,104.88,0,1,1,84.13,167.49" fill="none" stroke="#6d6e71" stroke-miterlimit="10" stroke-width="1.41"/><polygon points="1304.43 149.65 1304.43 257.4 1126.54 257.4 1126.54 235.68 1304.43 149.65" fill="#fff" stroke="#6d6e71" stroke-miterlimit="10" stroke-width="0.25"/><polyline points="1684.44 233.07 1691.07 247.9 1710.05 290.4" fill="none" stroke="#6d6e71" stroke-miterlimit="10" stroke-width="1.41"/><line x1="1757.7" y1="356.32" x2="1806.44" y2="395.81" fill="none" stroke="#6d6e71" stroke-miterlimit="10" stroke-width="1.41"/><line x1="1726.6" y1="371.99" x2="1726.6" y2="434.72" fill="none" stroke="#6d6e71" stroke-miterlimit="10" stroke-width="1.41"/><path d="M1599.94,114.32V257.4H1304.43V149.65s154.37-74.81,190-92.17C1549.54,30.58,1599.94,55.64,1599.94,114.32Z" fill="#fff" stroke="#6d6e71" stroke-miterlimit="10" stroke-width="0.25"/><rect x="1660.61" y="857.02" width="77.23" height="32.65" fill="#fff" stroke="#6d6e71" stroke-miterlimit="10" stroke-width="0.25"/><rect x="1478.63" y="330.47" width="53.96" height="19.47" fill="none" stroke="#6d6e71" stroke-miterlimit="10" stroke-width="0.25"/><polyline points="1485.42 346.79 1481.52 346.79 1481.52 334.06 1494.85 334.06 1494.85 346.79 1490.96 346.79" fill="none" stroke="#6d6e71" stroke-miterlimit="10" stroke-width="0.25"/><polyline points="1502.84 346.79 1498.95 346.79 1498.95 334.06 1512.28 334.06 1512.28 346.79 1508.39 346.79" fill="none" stroke="#6d6e71" stroke-miterlimit="10" stroke-width="0.25"/><polyline points="1520.16 346.79 1516.27 346.79 1516.27 334.06 1529.6 334.06 1529.6 346.79 1525.71 346.79" fill="none" stroke="#6d6e71" stroke-miterlimit="10" stroke-width="0.25"/><polyline points="1484.07 388.88 1478.63 388.88 1478.63 408.65 1536.49 408.65 1536.49 388.88 1530.5 388.88" fill="none" stroke="#6d6e71" stroke-miterlimit="10" stroke-width="0.25"/><polyline points="1485.27 391.73 1481.52 391.73 1481.52 404.46 1494.85 404.46 1494.85 391.73 1491.11 391.73" fill="none" stroke="#6d6e71" stroke-miterlimit="10" stroke-width="0.25"/><polyline points="1502.01 391.73 1498.26 391.73 1498.26 404.46 1511.59 404.46 1511.59 391.73 1507.85 391.73" fill="none" stroke="#6d6e71" stroke-miterlimit="10" stroke-width="0.25"/><polyline points="1520.74 391.73 1517.16 391.73 1517.16 404.46 1533.46 404.46 1533.46 391.73 1529.89 391.73" fill="none" stroke="#6d6e71" stroke-miterlimit="10" stroke-width="0.25"/><path d="M1522.54,383.81a1.6,1.6,0,0,1-1.6,1.6h-28.79a1.6,1.6,0,0,1-1.6-1.6V355a1.6,1.6,0,0,1,1.6-1.6h28.79a1.6,1.6,0,0,1,1.6,1.6Z" fill="none" stroke="#6d6e71" stroke-miterlimit="10" stroke-width="0.25"/><path d="M1516.2,362.66a1,1,0,0,0-.69-.27h-17.94a1,1,0,0,0-.69.27.91.91,0,0,0-.28.67v18.72a.94.94,0,0,0,.28.69,1,1,0,0,0,.69.26h17.94a1,1,0,0,0,.69-.26.91.91,0,0,0,.29-.69V363.33A.88.88,0,0,0,1516.2,362.66Zm-1,19.1h-17.39V363.63h17.39Z" fill="#6d6e71"/><path d="M1502.49,369a1.31,1.31,0,0,1,.92-2.24,1.24,1.24,0,0,1,.92.38,1.3,1.3,0,0,1,0,1.86,1.24,1.24,0,0,1-.92.37,1.25,1.25,0,0,1-.92-.37" fill="#6d6e71"/><path d="M1500.81,375.26a.51.51,0,0,0,.58,0,.37.37,0,0,0,.12-.31v-3.54a.11.11,0,0,1,.08-.11l.14,0,.13,0a.1.1,0,0,1,.08.11v8.13a.55.55,0,0,0,.17.41.65.65,0,0,0,.43.17.59.59,0,0,0,.42-.17.52.52,0,0,0,.18-.41v-5a.18.18,0,0,1,.11-.18.45.45,0,0,1,.17,0,.33.33,0,0,1,.14,0,.19.19,0,0,1,.1.18v5a.55.55,0,0,0,.17.41.61.61,0,0,0,.43.17.58.58,0,0,0,.43-.17.55.55,0,0,0,.17-.41l0-8.13a.11.11,0,0,1,.08-.11l.14,0,.14,0a.11.11,0,0,1,.08.11V375a.37.37,0,0,0,.12.31.45.45,0,0,0,.28.09.43.43,0,0,0,.26-.09.35.35,0,0,0,.13-.31v-3.76a1.51,1.51,0,0,0-.37-1,1.26,1.26,0,0,0-1-.44h-2.86a1.06,1.06,0,0,0-.92.44,1.84,1.84,0,0,0-.28,1V375a.37.37,0,0,0,.12.31" fill="#6d6e71"/><path d="M1509.67,369.39a1.26,1.26,0,0,0,.93-.37,1.33,1.33,0,0,0,0-1.86,1.27,1.27,0,0,0-.93-.38,1.31,1.31,0,1,0,0,2.61" fill="#6d6e71"/><path d="M1507.07,375.26a.5.5,0,0,0,.29.09.43.43,0,0,0,.28-.09.35.35,0,0,0,.13-.31v-3.54a.1.1,0,0,1,.08-.11l.14,0,.13,0a.1.1,0,0,1,.08.11v8.13a.52.52,0,0,0,.18.41.6.6,0,0,0,.84,0,.52.52,0,0,0,.18-.41v-5a.18.18,0,0,1,.11-.18.45.45,0,0,1,.16,0,.41.41,0,0,1,.16,0,.17.17,0,0,1,.11.18v5a.55.55,0,0,0,.17.41.56.56,0,0,0,.43.17.57.57,0,0,0,.42-.17.52.52,0,0,0,.18-.41v-8.13c0-.06,0-.09.09-.11l.13,0,.14,0a.11.11,0,0,1,.08.11V375a.37.37,0,0,0,.12.31.47.47,0,0,0,.28.09.46.46,0,0,0,.29-.09.37.37,0,0,0,.12-.31v-3.76a1.43,1.43,0,0,0-.38-1,1.3,1.3,0,0,0-1-.44h-2.83a1.08,1.08,0,0,0-.93.44,1.69,1.69,0,0,0-.3,1V375a.4.4,0,0,0,.12.31" fill="#6d6e71"/><path d="M1512.39,358.72h-1v-3.37s0-.13-.18-.13h-1.53c-.25,0-.21.17-.21.17v3.4h-1.09c-.31,0,0,.27,0,.27l1.94,2.35a.21.21,0,0,0,.32,0c.23-.23,1.87-2.42,1.87-2.42s.3-.29-.09-.29" fill="#6d6e71"/><path d="M1501.51,358h1v3.37s0,.13.18.13h1.53c.26,0,.21-.16.21-.16v-3.4h1.1c.31,0,0-.28,0-.28l-1.94-2.34a.22.22,0,0,0-.33,0c-.23.23-1.87,2.42-1.87,2.42s-.3.29.09.29" fill="#6d6e71"/><rect x="370.74" y="820.51" width="30.43" height="69.15" fill="#fff" stroke="#000101" stroke-miterlimit="10" stroke-width="0.21"/><rect x="401.17" y="838.31" width="24.8" height="51.35" fill="#fff" stroke="#000101" stroke-miterlimit="10" stroke-width="0.21"/><rect x="425.97" y="846.74" width="64.6" height="42.92" fill="#fff" stroke="#000101" stroke-miterlimit="10" stroke-width="0.22"/><rect x="406.07" y="842" width="15.9" height="18.99" fill="none" stroke="#221e1f" stroke-miterlimit="10" stroke-width="0.21"/><rect x="406.07" y="866.48" width="15.9" height="18.99" fill="none" stroke="#221e1f" stroke-miterlimit="10" stroke-width="0.21"/><path d="M397.22,872.81a1.15,1.15,0,0,1-1.15,1.16H375.26a1.16,1.16,0,0,1-1.16-1.16V852a1.16,1.16,0,0,1,1.16-1.16h20.81a1.15,1.15,0,0,1,1.15,1.16Z" fill="none" stroke="#231f20" stroke-miterlimit="10" stroke-width="0.32"/><path d="M378.68,857.53a.64.64,0,0,0-.21.49v13.53a.64.64,0,0,0,.21.49.68.68,0,0,0,.5.19h13a.68.68,0,0,0,.5-.19.64.64,0,0,0,.21-.49V858a.64.64,0,0,0-.21-.49.68.68,0,0,0-.5-.19h-13A.68.68,0,0,0,378.68,857.53Zm13.26.7v13.11H379.38V858.23Z" fill="#231f20"/><path d="M382.73,862.12a.93.93,0,0,1-.28-.67.91.91,0,0,1,.28-.66.89.89,0,0,1,.67-.28.94.94,0,0,1,.94.94.92.92,0,0,1-.27.67.91.91,0,0,1-.67.28.89.89,0,0,1-.67-.28" fill="#231f20"/><path d="M381.52,866.64a.37.37,0,0,0,.21.06.32.32,0,0,0,.2-.06.27.27,0,0,0,.09-.23v-2.56s0-.06.07-.08l.09,0,.1,0a.09.09,0,0,1,.06.08v5.88a.38.38,0,0,0,.13.3.44.44,0,0,0,.6,0,.38.38,0,0,0,.13-.3v-3.6a.12.12,0,0,1,.08-.12l.12,0,.11,0a.13.13,0,0,1,.07.12v3.6a.41.41,0,0,0,.12.3.45.45,0,0,0,.31.12.41.41,0,0,0,.31-.12.41.41,0,0,0,.12-.3l0-5.88a.09.09,0,0,1,.06-.08l.1,0,.09,0c.05,0,.07.05.07.08v2.56a.27.27,0,0,0,.08.23.36.36,0,0,0,.4,0,.27.27,0,0,0,.09-.23v-2.72a1,1,0,0,0-.27-.7.89.89,0,0,0-.72-.32H382.3a.74.74,0,0,0-.66.32,1.23,1.23,0,0,0-.21.7v2.72a.31.31,0,0,0,.09.23" fill="#231f20"/><path d="M387.92,862.4a1,1,0,0,0,.95-.95.87.87,0,0,0-.28-.66.94.94,0,0,0-1.61.66.92.92,0,0,0,.27.67.89.89,0,0,0,.67.28" fill="#231f20"/><path d="M386.05,866.64a.32.32,0,0,0,.2.06.37.37,0,0,0,.21-.06.3.3,0,0,0,.08-.23v-2.56a.09.09,0,0,1,.06-.08l.11,0,.09,0a.09.09,0,0,1,.06.08v5.88a.38.38,0,0,0,.13.3.42.42,0,0,0,.3.12.45.45,0,0,0,.31-.12.42.42,0,0,0,.13-.3v-3.6a.11.11,0,0,1,.07-.12l.12,0,.12,0a.12.12,0,0,1,.08.12v3.6a.41.41,0,0,0,.12.3.41.41,0,0,0,.31.12.45.45,0,0,0,.31-.12.41.41,0,0,0,.12-.3v-5.88s0-.06.06-.08l.1,0,.1,0a.09.09,0,0,1,.06.08v2.56a.27.27,0,0,0,.09.23.36.36,0,0,0,.2.06.37.37,0,0,0,.21-.06.27.27,0,0,0,.09-.23v-2.72a1,1,0,0,0-.28-.7.9.9,0,0,0-.72-.32h-2.05a.76.76,0,0,0-.67.32,1.23,1.23,0,0,0-.21.7v2.72a.25.25,0,0,0,.09.23" fill="#231f20"/><path d="M389,854.68h-.73v-2.43s0-.1-.13-.1H387c-.18,0-.15.12-.15.12v2.46h-.78c-.24,0,0,.2,0,.2l1.4,1.7a.15.15,0,0,0,.23,0c.16-.17,1.35-1.75,1.35-1.75s.22-.21-.06-.21" fill="#231f20"/><path d="M381.11,854.16h.73v2.43s0,.1.12.1h1.11c.18,0,.15-.12.15-.12v-2.46H384c.23,0,0-.2,0-.2l-1.41-1.69a.15.15,0,0,0-.23,0c-.16.17-1.36,1.75-1.36,1.75s-.2.21.08.21" fill="#231f20"/><rect x="1393.68" y="857.67" width="103.92" height="32" fill="#fff" stroke="#6d6e71" stroke-miterlimit="10" stroke-width="0.25"/><rect x="734.64" y="573.03" width="157.23" height="68.61" fill="#fff" stroke="#6d6e71" stroke-miterlimit="10" stroke-width="0.25"/><rect x="445.44" y="860.7" width="23.1" height="15.01" rx="0.72" fill="#db1f29"/><polygon points="459.15 862.21 459.15 872.46 456.91 874.2 464.35 874.2 466.59 872.46 466.59 862.21 459.15 862.21" fill="#fff"/><path d="M464,866.31a.86.86,0,1,0-.86-.86A.85.85,0,0,0,464,866.31Z" fill="#db1f29" stroke="#fff" stroke-miterlimit="10" stroke-width="0.05"/><path d="M465.82,867.83l-1.43.15-.86-1.59a.42.42,0,0,0-.29-.21l-.28-.07h0l-1.49-.35a.46.46,0,0,0-.36.07l-1.49,1.11a.44.44,0,0,0-.1.61.45.45,0,0,0,.62.1l1.33-1,.67.15-2.27,3.28-2.21-.11a.44.44,0,0,0-.46.42.43.43,0,0,0,.41.46l2.47.12h0a.44.44,0,0,0,.36-.19l.76-1.09,1.21.87v2a.44.44,0,0,0,.44.44.44.44,0,0,0,.44-.44v-2.18a.45.45,0,0,0-.18-.36l-.94-.68,1.05-1.6.52.94a.43.43,0,0,0,.38.23h.05l1.71-.17a.44.44,0,0,0,.4-.48A.45.45,0,0,0,465.82,867.83Z" fill="#db1f29" stroke="#fff" stroke-miterlimit="10" stroke-width="0.05"/><path d="M454,867.31a2.84,2.84,0,0,1-.44,1.34c-.11-1.29-1-2.59-.61-3.82a9.49,9.49,0,0,0-.86,2.3c-.07-.15-.14-.29-.2-.45-.53-1.27-.07-2.46.11-3.74a4.12,4.12,0,0,0-1.65,2.75,11.37,11.37,0,0,0-.11,2c-.36-.53-.89-1.1-.75-1.65a11.06,11.06,0,0,0-.27,1.71,2.8,2.8,0,0,0,0,1c-.3-.38-.56-1-1.25-1,.56,1.2-.47,1.15.28,2.35a1.75,1.75,0,0,1-1.06-1.69c-.81,1.36.19,3.76,1.32,4.54a4.65,4.65,0,0,0,1.66.62,2.31,2.31,0,0,1-.62-.52c-.24-.29-.23-.77-.47-1a2.49,2.49,0,0,0,.94.41,1.61,1.61,0,0,1-.1-.35,6.52,6.52,0,0,1-.19-1c0-.27,0-.53,0-.8a1,1,0,0,0,0-.17l0,0,0,0a1.18,1.18,0,0,0,.32.31,3.92,3.92,0,0,1,.57.51,1.1,1.1,0,0,1,.31.73,3.75,3.75,0,0,0,.58-1.66.41.41,0,0,1,0-.11v.11c0,.41.29.81.35,1.21a1.66,1.66,0,0,1,0,1.08c.45-.05.72-.54,1-.8a3.21,3.21,0,0,1-.2,1.23,2,2,0,0,1-.51.76,2.73,2.73,0,0,0,1.22-.59C455,871.28,454.51,869.18,454,867.31Z" fill="#fff"/><rect x="1660.58" y="566.56" width="49.45" height="35.71" fill="#fff" stroke="#6d6e71" stroke-miterlimit="10" stroke-width="0.25"/><rect x="1660.58" y="602.27" width="49.45" height="65.6" fill="#fff" stroke="#6d6e71" stroke-miterlimit="10" stroke-width="0.25"/><polyline points="1675.15 571.32 1667.78 571.32 1667.78 598.51 1704.05 598.51 1704.05 571.32 1697.02 571.32" fill="none" stroke="#6d6e71" stroke-miterlimit="10" stroke-width="0.25"/><polyline points="1674.92 662.03 1667.78 662.03 1667.78 607.33 1704.38 607.33 1704.38 662.03 1696.65 662.03" fill="#fff" stroke="#6d6e71" stroke-miterlimit="10" stroke-width="0.25"/><path d="M1701.27,653h-.64V615.88h.64a.64.64,0,0,0,.64-.64.64.64,0,0,0-.64-.64h-30.72a.64.64,0,1,0,0,1.28h.64V653h-.64a.64.64,0,1,0,0,1.28h30.72a.64.64,0,0,0,.64-.64.64.64,0,0,0-.64-.64m-1.92,0h-12.8V615.88h12.8Zm-26.88-37.12h12.8V653h-12.8Z" fill="#6d6e71"/><path d="M1684.1,633l-5.23-5.63-5.24,5.63.94.87,3.66-3.93v7a.64.64,0,0,0,.64.64.64.64,0,0,0,.64-.64v-7l3.65,3.93Z" fill="#6d6e71"/><path d="M1687.71,631.37,1693,637l5.23-5.63-.93-.87-3.66,3.93v-7a.64.64,0,0,0-.64-.64.64.64,0,0,0-.64.64v7l-3.66-3.93Z" fill="#6d6e71"/><path d="M1695.57,576.48a1,1,0,0,0-.69-.27h-17.94a1,1,0,0,0-.69.27.88.88,0,0,0-.28.67v18.72a.88.88,0,0,0,.28.68,1,1,0,0,0,.69.27h17.94a1,1,0,0,0,.69-.27.88.88,0,0,0,.28-.68V577.15A.88.88,0,0,0,1695.57,576.48Zm-1,19.1h-17.39V577.45h17.39Z" fill="#6d6e71"/><path d="M1681.85,582.84a1.32,1.32,0,0,1-.38-.94,1.26,1.26,0,0,1,.38-.92,1.24,1.24,0,0,1,.93-.38,1.21,1.21,0,0,1,.92.38,1.23,1.23,0,0,1,.39.92,1.29,1.29,0,0,1-.39.94,1.24,1.24,0,0,1-.92.37,1.27,1.27,0,0,1-.93-.37" fill="#6d6e71"/><path d="M1680.18,589.08a.48.48,0,0,0,.29.09.45.45,0,0,0,.28-.09.39.39,0,0,0,.12-.32v-3.54a.11.11,0,0,1,.09-.11l.13,0,.14,0a.12.12,0,0,1,.08.11v8.14a.57.57,0,0,0,.17.41.64.64,0,0,0,.43.16.6.6,0,0,0,.42-.16.54.54,0,0,0,.18-.41v-5a.17.17,0,0,1,.11-.18l.16,0a.56.56,0,0,1,.15,0,.19.19,0,0,1,.1.18v5a.53.53,0,0,0,.17.41.6.6,0,0,0,.43.16.57.57,0,0,0,.43-.16.56.56,0,0,0,.16-.41l0-8.14a.11.11,0,0,1,.08-.11l.14,0,.13,0a.11.11,0,0,1,.09.11v3.54a.36.36,0,0,0,.12.32.45.45,0,0,0,.54,0,.4.4,0,0,0,.13-.32V585a1.54,1.54,0,0,0-.37-1,1.27,1.27,0,0,0-1-.43h-2.86a1,1,0,0,0-.92.43,1.79,1.79,0,0,0-.28,1v3.75a.39.39,0,0,0,.12.32" fill="#6d6e71"/><path d="M1689,583.21a1.29,1.29,0,0,0,.93-.37,1.31,1.31,0,0,0,.37-.94,1.25,1.25,0,0,0-.37-.92,1.33,1.33,0,0,0-1.86,0,1.26,1.26,0,0,0-.38.92,1.32,1.32,0,0,0,.38.94,1.29,1.29,0,0,0,.93.37" fill="#6d6e71"/><path d="M1686.44,589.08a.48.48,0,0,0,.29.09.45.45,0,0,0,.28-.09.37.37,0,0,0,.13-.32v-3.54a.11.11,0,0,1,.08-.11l.13,0,.14,0a.11.11,0,0,1,.08.11v8.14a.54.54,0,0,0,.18.41.63.63,0,0,0,.84,0,.58.58,0,0,0,.18-.41v-5a.17.17,0,0,1,.11-.18l.16,0,.16,0a.18.18,0,0,1,.11.18v5a.55.55,0,0,0,.6.57.58.58,0,0,0,.42-.16.54.54,0,0,0,.18-.41v-8.14a.12.12,0,0,1,.08-.11l.14,0,.14,0a.11.11,0,0,1,.07.11v3.54a.4.4,0,0,0,.13.32.45.45,0,0,0,.28.09.48.48,0,0,0,.29-.09.39.39,0,0,0,.12-.32V585a1.5,1.5,0,0,0-.38-1,1.29,1.29,0,0,0-1-.43h-2.83a1.06,1.06,0,0,0-.93.43,1.72,1.72,0,0,0-.3,1v3.75a.39.39,0,0,0,.12.32" fill="#6d6e71"/><path d="M1691.76,572.53h-1v-3.36s0-.14-.18-.14H1689c-.25,0-.21.17-.21.17v3.4h-1.09c-.31,0,0,.28,0,.28l2,2.34a.21.21,0,0,0,.32,0c.23-.22,1.87-2.41,1.87-2.41s.3-.3-.09-.3" fill="#6d6e71"/><path d="M1680.88,571.81h1v3.36s0,.14.17.14h1.54c.25,0,.21-.16.21-.16v-3.41h1.09c.32,0,0-.28,0-.28l-1.94-2.34a.23.23,0,0,0-.33,0c-.23.23-1.88,2.41-1.88,2.41s-.29.3.1.3" fill="#6d6e71"/><rect x="939.55" y="815.63" width="100.18" height="73.76" fill="#fff" stroke="#231f20" stroke-miterlimit="10" stroke-width="0.21"/><rect x="939.55" y="815.63" width="23.51" height="73.77" fill="#fff" stroke="#000101" stroke-miterlimit="10" stroke-width="0.17"/><rect x="963.06" y="829.28" width="21.61" height="60.12" fill="none" stroke="#000101" stroke-miterlimit="10" stroke-width="0.15"/><rect x="1018.74" y="829.28" width="20.99" height="60.1" fill="#fff" stroke="#000101" stroke-miterlimit="10" stroke-width="0.21"/><rect x="967.98" y="835.55" width="12.02" height="12.9" fill="none" stroke="#221e1f" stroke-miterlimit="10" stroke-width="0.21"/><rect x="967.98" y="852.38" width="12.02" height="12.9" fill="none" stroke="#221e1f" stroke-miterlimit="10" stroke-width="0.21"/><rect x="967.98" y="869.22" width="12.02" height="12.9" fill="none" stroke="#221e1f" stroke-miterlimit="10" stroke-width="0.21"/><rect x="1023.22" y="835.55" width="12.02" height="12.9" fill="none" stroke="#221e1f" stroke-miterlimit="10" stroke-width="0.21"/><rect x="1023.22" y="852.38" width="12.02" height="12.9" fill="none" stroke="#221e1f" stroke-miterlimit="10" stroke-width="0.21"/><rect x="1023.22" y="869.22" width="12.02" height="12.9" fill="none" stroke="#221e1f" stroke-miterlimit="10" stroke-width="0.21"/><path d="M1013.35,868a1.15,1.15,0,0,1-1.15,1.15H991.38a1.14,1.14,0,0,1-1.15-1.15V847.19a1.15,1.15,0,0,1,1.15-1.16h20.82a1.16,1.16,0,0,1,1.15,1.16Z" fill="none" stroke="#474749" stroke-miterlimit="10" stroke-width="0.32"/><path d="M994.81,852.72a.64.64,0,0,0-.21.49v13.53a.65.65,0,0,0,.21.49.72.72,0,0,0,.5.19h13a.76.76,0,0,0,.5-.19.69.69,0,0,0,.21-.49V853.21a.67.67,0,0,0-.21-.49.72.72,0,0,0-.5-.2h-13A.69.69,0,0,0,994.81,852.72Zm13.26.7v13.11H995.5V853.42Z" fill="#231f20"/><path d="M998.86,857.31a.89.89,0,0,1-.28-.67.95.95,0,0,1,1.89,0,.89.89,0,0,1-.28.67,1,1,0,0,1-1.33,0" fill="#231f20"/><path d="M997.65,861.82a.31.31,0,0,0,.21.07.31.31,0,0,0,.2-.07.25.25,0,0,0,.09-.22V859s0-.06.06-.08l.1,0,.1,0a.09.09,0,0,1,.05.08v5.88a.36.36,0,0,0,.14.29.41.41,0,0,0,.3.12.42.42,0,0,0,.3-.12.35.35,0,0,0,.13-.29v-3.6a.12.12,0,0,1,.08-.13l.11,0,.11,0a.13.13,0,0,1,.07.13v3.6a.38.38,0,0,0,.13.29.45.45,0,0,0,.31.12.41.41,0,0,0,.31-.12.37.37,0,0,0,.12-.29V859s0-.06.07-.08l.09,0,.1,0s.06,0,.06.08v2.56a.25.25,0,0,0,.09.22.31.31,0,0,0,.2.07.26.26,0,0,0,.19-.07.25.25,0,0,0,.09-.22v-2.72a1.11,1.11,0,0,0-.26-.71.93.93,0,0,0-.72-.31h-2.07a.73.73,0,0,0-.65.31,1.26,1.26,0,0,0-.21.71v2.72a.25.25,0,0,0,.09.22" fill="#231f20"/><path d="M1004.05,857.58a.88.88,0,0,0,.67-.27.93.93,0,0,0,.28-.67,1,1,0,0,0-.28-.67,1,1,0,0,0-1.34,0,1,1,0,0,0-.28.67.93.93,0,0,0,.28.67.88.88,0,0,0,.67.27" fill="#231f20"/><path d="M1002.17,861.82a.31.31,0,0,0,.21.07.27.27,0,0,0,.2-.07.25.25,0,0,0,.09-.22V859s0-.06.06-.08l.1,0,.1,0s.06,0,.06.08v5.88a.37.37,0,0,0,.12.29.46.46,0,0,0,.62,0,.37.37,0,0,0,.12-.29v-3.6a.13.13,0,0,1,.08-.13l.12,0,.12,0a.13.13,0,0,1,.08.13v3.6a.37.37,0,0,0,.12.29.4.4,0,0,0,.31.12.41.41,0,0,0,.3-.12.35.35,0,0,0,.13-.29V859s0-.06.06-.08l.1,0,.1,0a.07.07,0,0,1,0,.08v2.56a.24.24,0,0,0,.1.22.31.31,0,0,0,.2.07.31.31,0,0,0,.21-.07.25.25,0,0,0,.09-.22v-2.72a1,1,0,0,0-.28-.71,1,1,0,0,0-.73-.31h-2a.77.77,0,0,0-.67.31,1.19,1.19,0,0,0-.22.71v2.72a.25.25,0,0,0,.09.22" fill="#231f20"/><path d="M1005.72,849.87H1005v-2.43a.11.11,0,0,0-.12-.1h-1.12c-.18,0-.14.12-.14.12v2.46h-.79c-.23,0,0,.2,0,.2l1.4,1.69a.15.15,0,0,0,.23,0c.17-.17,1.35-1.75,1.35-1.75s.22-.21-.06-.21" fill="#231f20"/><path d="M997.86,849.35h.73v2.42s0,.11.13.11h1.1c.18,0,.15-.12.15-.12v-2.47h.79c.23,0,0-.2,0-.2l-1.4-1.69a.15.15,0,0,0-.23,0c-.17.16-1.36,1.74-1.36,1.74s-.21.22.07.22" fill="#231f20"/><line x1="1637.65" y1="265.29" x2="1689.18" y2="307.51" fill="none" stroke="#6d6e71" stroke-miterlimit="10" stroke-width="0.5"/><path d="M1697.24,260.84s-17.44,4.24-32.25,26.86" fill="none" stroke="#6d6e71" stroke-miterlimit="10" stroke-width="0.5"/><path d="M1703.09,274.82s-16,6.91-25.24,23.41" fill="none" stroke="#6d6e71" stroke-miterlimit="10" stroke-width="0.5"/><text transform="translate(770.94 618.45)" font-size="34.33" fill="#58595b" font-family="Roboto-Regular, Roboto">Sảnh</text><text transform="translate(1438.56 699.63)" font-size="15.03" fill="#58595b" font-family="Roboto-Regular, Roboto">Sảnh</text><text transform="translate(1402.16 591.9)" font-size="9.68" fill="#58595b" font-family="Roboto-Regular, Roboto">Vietlott</text><path d="M93.9,923.94V666c0-21.54,9.46-27.53,23.13-32.84,38.56-15,916.68-352.78,916.68-352.78S1450.08,78.63,1500.64,54.49c50-23.91,99,1.44,99,59.83V223.64h125.32c66.9,0,106.15,56.46,106.15,106.2V902c0,35.78-26.61,57.78-60.28,57.78H132.65C107.19,959.8,93.9,939,93.9,923.94Z" fill="none" stroke="#231f20" stroke-miterlimit="10" stroke-width="1.05"/><rect x="939.75" y="846.55" width="23.1" height="15.01" rx="0.72" fill="#db1f29"/><polygon points="953.46 848.06 953.46 858.32 951.22 860.05 958.66 860.05 960.9 858.32 960.9 848.06 953.46 848.06" fill="#fff"/><path d="M958.31,852.16a.86.86,0,1,0-.86-.85A.86.86,0,0,0,958.31,852.16Z" fill="#db1f29" stroke="#fff" stroke-miterlimit="10" stroke-width="0.05"/><path d="M960.13,853.69l-1.43.14-.86-1.58a.44.44,0,0,0-.29-.22l-.28-.07h0l-1.48-.35a.45.45,0,0,0-.37.08l-1.49,1.1a.44.44,0,0,0-.09.62.44.44,0,0,0,.61.09l1.33-1,.67.16L954.19,856l-2.22-.11a.44.44,0,1,0,0,.88l2.46.13h0a.45.45,0,0,0,.37-.19l.75-1.1,1.21.88v1.95a.44.44,0,0,0,.44.44.43.43,0,0,0,.44-.44v-2.18a.44.44,0,0,0-.18-.36l-.94-.68,1.06-1.6.51.94a.45.45,0,0,0,.39.23h0l1.72-.18a.44.44,0,1,0-.09-.87Z" fill="#db1f29" stroke="#fff" stroke-miterlimit="10" stroke-width="0.05"/><path d="M948.3,853.16a3,3,0,0,1-.44,1.34c-.12-1.28-1-2.59-.61-3.82a9.09,9.09,0,0,0-.86,2.3c-.07-.14-.14-.29-.2-.44-.53-1.27-.08-2.47.1-3.75a4.12,4.12,0,0,0-1.65,2.75,13.8,13.8,0,0,0-.11,2c-.35-.53-.88-1.1-.75-1.65a11.22,11.22,0,0,0-.26,1.71,2.84,2.84,0,0,0,0,1c-.29-.39-.56-1-1.24-1,.55,1.19-.47,1.14.28,2.34a1.72,1.72,0,0,1-1.06-1.69c-.81,1.36.19,3.76,1.31,4.54a4.7,4.7,0,0,0,1.67.62,2.19,2.19,0,0,1-.63-.52c-.23-.29-.23-.77-.47-1a2.49,2.49,0,0,0,.94.41,1.61,1.61,0,0,1-.1-.35,6.5,6.5,0,0,1-.18-1c0-.26,0-.53,0-.79a.31.31,0,0,0,0-.17s0,0,0,0,0,0,0,0a1.52,1.52,0,0,0,.32.3,3.92,3.92,0,0,1,.57.51,1.1,1.1,0,0,1,.31.73,3.59,3.59,0,0,0,.58-1.66v0c0,.41.29.81.35,1.21s.18.77,0,1.08c.45,0,.73-.54,1-.79a3,3,0,0,1-.21,1.22,2.18,2.18,0,0,1-.5.77,2.92,2.92,0,0,0,1.21-.59C949.35,857.14,948.83,855,948.3,853.16Z" fill="#fff"/><rect x="1539.66" y="349.74" width="36.57" height="23.77" rx="0.72" fill="#db1f29"/><polygon points="1561.37 352.13 1561.37 368.37 1557.82 371.12 1569.59 371.12 1573.14 368.37 1573.14 352.13 1561.37 352.13" fill="#fff"/><path d="M1569,358.63a1.36,1.36,0,1,0-1.36-1.36A1.36,1.36,0,0,0,1569,358.63Z" fill="#db1f29" stroke="#fff" stroke-miterlimit="10" stroke-width="0.05"/><path d="M1571.92,361l-2.26.23-1.37-2.51a.68.68,0,0,0-.45-.34l-.44-.11h0l-2.35-.55a.68.68,0,0,0-.58.12l-2.37,1.74a.7.7,0,0,0-.14,1,.69.69,0,0,0,1,.15l2.11-1.56,1.06.25-3.59,5.19-3.51-.17a.7.7,0,0,0-.07,1.39l3.9.2h0a.71.71,0,0,0,.57-.3l1.2-1.74,1.92,1.38v3.1a.7.7,0,1,0,1.39,0V365a.7.7,0,0,0-.29-.57l-1.49-1.08,1.67-2.53.82,1.48a.69.69,0,0,0,.61.37h.07l2.72-.27a.7.7,0,1,0-.14-1.39Z" fill="#db1f29" stroke="#fff" stroke-miterlimit="10" stroke-width="0.05"/><path d="M1553.19,360.21a4.8,4.8,0,0,1-.7,2.12c-.18-2-1.53-4.1-1-6a14.85,14.85,0,0,0-1.36,3.64c-.11-.23-.22-.47-.32-.71-.83-2-.12-3.9.17-5.93-1.41.78-2.32,2.79-2.61,4.35a19.58,19.58,0,0,0-.18,3.16c-.56-.84-1.4-1.74-1.18-2.62a17,17,0,0,0-.43,2.71,4.58,4.58,0,0,0,.05,1.51c-.47-.61-.89-1.57-2-1.64.87,1.89-.75,1.8.44,3.71a2.76,2.76,0,0,1-1.68-2.68c-1.28,2.15.3,6,2.08,7.19a7.24,7.24,0,0,0,2.64,1,3.55,3.55,0,0,1-1-.82c-.37-.45-.36-1.21-.75-1.62a4,4,0,0,0,1.49.66,2.29,2.29,0,0,1-.15-.56,10.34,10.34,0,0,1-.3-1.55c0-.42,0-.84,0-1.26a.77.77,0,0,0,0-.27l0-.06,0,.06a2.12,2.12,0,0,0,.5.49,5.26,5.26,0,0,1,.9.8,1.73,1.73,0,0,1,.5,1.15,5.75,5.75,0,0,0,.91-2.62v-.17a1,1,0,0,1,0,.17c0,.64.46,1.28.56,1.92s.28,1.22,0,1.7c.71-.07,1.15-.85,1.65-1.26a4.89,4.89,0,0,1-.32,1.94,3.26,3.26,0,0,1-.81,1.22,4.47,4.47,0,0,0,1.93-.94C1554.85,366.51,1554,363.17,1553.19,360.21Z" fill="#fff"/><rect x="1429.06" y="861.78" width="36.57" height="23.77" rx="0.72" fill="#db1f29"/><polygon points="1450.77 864.17 1450.77 880.41 1447.22 883.16 1459 883.16 1462.55 880.41 1462.55 864.17 1450.77 864.17" fill="#fff"/><path d="M1458.44,870.67a1.36,1.36,0,1,0-1.35-1.36A1.36,1.36,0,0,0,1458.44,870.67Z" fill="#db1f29" stroke="#fff" stroke-miterlimit="10" stroke-width="0.05"/><path d="M1461.33,873.08l-2.26.23-1.37-2.51a.7.7,0,0,0-.45-.34l-.45-.11h0l-2.35-.55a.68.68,0,0,0-.57.11l-2.37,1.75a.7.7,0,1,0,.83,1.13l2.11-1.56,1,.25-3.58,5.19-3.51-.18a.7.7,0,0,0-.07,1.4l3.9.19h0a.71.71,0,0,0,.58-.31l1.2-1.73,1.91,1.38v3.1a.7.7,0,0,0,1.4,0v-3.45a.7.7,0,0,0-.29-.57l-1.49-1.08,1.67-2.54.82,1.49a.68.68,0,0,0,.61.37h.07l2.72-.27a.7.7,0,0,0-.14-1.39Z" fill="#db1f29" stroke="#fff" stroke-miterlimit="10" stroke-width="0.05"/><path d="M1442.59,872.25a4.56,4.56,0,0,1-.7,2.12c-.18-2-1.53-4.1-1-6a14.76,14.76,0,0,0-1.36,3.65c-.11-.23-.22-.47-.32-.71-.84-2-.12-3.9.17-5.93-1.42.78-2.33,2.79-2.62,4.35a20.86,20.86,0,0,0-.17,3.16c-.56-.85-1.4-1.74-1.19-2.62a18,18,0,0,0-.42,2.71,4.56,4.56,0,0,0,0,1.51c-.47-.61-.88-1.57-2-1.64.88,1.89-.74,1.8.45,3.71a2.74,2.74,0,0,1-1.68-2.68c-1.29,2.15.3,6,2.08,7.19a7.12,7.12,0,0,0,2.63,1,3.7,3.7,0,0,1-1-.82c-.37-.46-.35-1.22-.74-1.62a4.19,4.19,0,0,0,1.49.66,2.29,2.29,0,0,1-.16-.56,9.2,9.2,0,0,1-.29-1.55c0-.42,0-.84,0-1.26a.73.73,0,0,0,0-.27.43.43,0,0,1,0-.07l0,.07a2.11,2.11,0,0,0,.51.48,5.32,5.32,0,0,1,.9.81,1.77,1.77,0,0,1,.49,1.15,5.65,5.65,0,0,0,.92-2.62v0a19.85,19.85,0,0,0,.56,1.92,2.54,2.54,0,0,1,0,1.7c.71-.07,1.15-.85,1.66-1.26a5.07,5.07,0,0,1-.32,1.94,3.13,3.13,0,0,1-.81,1.21,4.32,4.32,0,0,0,1.92-.93C1444.25,878.55,1443.43,875.21,1442.59,872.25Z" fill="#fff"/><rect x="1680.94" y="861.78" width="36.57" height="23.77" rx="0.72" fill="#db1f29"/><polygon points="1702.64 864.17 1702.64 880.41 1699.1 883.16 1710.87 883.16 1714.42 880.41 1714.42 864.17 1702.64 864.17" fill="#fff"/><path d="M1710.32,870.67a1.36,1.36,0,1,0-1.36-1.36A1.36,1.36,0,0,0,1710.32,870.67Z" fill="#db1f29" stroke="#fff" stroke-miterlimit="10" stroke-width="0.05"/><path d="M1713.2,873.08l-2.26.23-1.37-2.51a.68.68,0,0,0-.45-.34l-.45-.11h0l-2.35-.55a.68.68,0,0,0-.57.11l-2.37,1.75a.71.71,0,0,0-.15,1,.7.7,0,0,0,1,.15l2.11-1.56,1.06.25-3.59,5.19-3.51-.18a.7.7,0,0,0-.07,1.4l3.9.19h0a.71.71,0,0,0,.57-.31l1.2-1.73,1.91,1.38v3.1a.7.7,0,0,0,1.4,0v-3.45a.7.7,0,0,0-.29-.57l-1.49-1.08,1.67-2.54.82,1.49a.69.69,0,0,0,.61.37h.07l2.72-.27a.7.7,0,0,0-.14-1.39Z" fill="#db1f29" stroke="#fff" stroke-miterlimit="10" stroke-width="0.05"/><path d="M1694.47,872.25a4.8,4.8,0,0,1-.7,2.12c-.18-2-1.53-4.1-1-6a14.76,14.76,0,0,0-1.36,3.65c-.11-.23-.22-.47-.32-.71-.83-2-.12-3.9.17-5.93-1.41.78-2.33,2.79-2.61,4.35a19.58,19.58,0,0,0-.18,3.16c-.56-.85-1.4-1.74-1.19-2.62a18,18,0,0,0-.42,2.71,4.85,4.85,0,0,0,0,1.51c-.46-.61-.88-1.57-2-1.64.87,1.89-.75,1.8.44,3.71a2.74,2.74,0,0,1-1.68-2.68c-1.28,2.15.3,6,2.08,7.19a7.1,7.1,0,0,0,2.64,1,3.41,3.41,0,0,1-1-.82c-.37-.46-.36-1.22-.75-1.62a4.19,4.19,0,0,0,1.49.66,2.29,2.29,0,0,1-.15-.56,10.34,10.34,0,0,1-.3-1.55c0-.42,0-.84,0-1.26a1.06,1.06,0,0,0,0-.27l0-.07,0,.07a1.9,1.9,0,0,0,.5.48,5.32,5.32,0,0,1,.9.81,1.73,1.73,0,0,1,.5,1.15,5.75,5.75,0,0,0,.91-2.62v0a19.85,19.85,0,0,0,.56,1.92c.08.52.28,1.22,0,1.7.7-.07,1.15-.85,1.65-1.26a4.89,4.89,0,0,1-.32,1.94,3.13,3.13,0,0,1-.81,1.21,4.36,4.36,0,0,0,1.93-.93C1696.13,878.55,1695.3,875.21,1694.47,872.25Z" fill="#fff"/><polygon points="404.26 640.71 487.39 608.38 487.39 635.58 422.06 661.22 404.26 661.22 404.26 640.71" fill="#fff" stroke="#000101" stroke-miterlimit="10" stroke-width="0.21"/><rect x="429.91" y="625.4" width="36.57" height="23.77" rx="0.72" fill="#db1f29"/><polygon points="451.62 627.79 451.62 644.03 448.07 646.78 459.85 646.78 463.4 644.03 463.4 627.79 451.62 627.79" fill="#fff"/><path d="M459.29,634.29a1.36,1.36,0,1,0-1.35-1.36A1.36,1.36,0,0,0,459.29,634.29Z" fill="#db1f29" stroke="#fff" stroke-miterlimit="10" stroke-width="0.05"/><path d="M462.17,636.7l-2.25.23-1.37-2.51a.7.7,0,0,0-.45-.34l-.45-.11h0l-2.35-.56a.72.72,0,0,0-.57.12l-2.37,1.75a.7.7,0,1,0,.83,1.12l2.1-1.55,1.06.25-3.58,5.19-3.51-.18a.7.7,0,0,0-.73.67.69.69,0,0,0,.66.73l3.9.19h0a.7.7,0,0,0,.58-.3l1.2-1.73,1.91,1.38v3.1a.7.7,0,0,0,1.4,0v-3.46a.7.7,0,0,0-.29-.56l-1.49-1.08,1.67-2.54.81,1.49a.71.71,0,0,0,.62.37h.07l2.71-.27a.7.7,0,1,0-.14-1.39Z" fill="#db1f29" stroke="#fff" stroke-miterlimit="10" stroke-width="0.05"/><path d="M443.44,635.87a4.56,4.56,0,0,1-.7,2.12c-.18-2-1.53-4.1-1-6a14.83,14.83,0,0,0-1.37,3.65c-.11-.24-.21-.47-.31-.71-.84-2-.12-3.9.17-5.93-1.42.78-2.33,2.79-2.62,4.35a18.55,18.55,0,0,0-.17,3.16c-.56-.85-1.4-1.74-1.19-2.62a18,18,0,0,0-.42,2.7,4.36,4.36,0,0,0,0,1.52c-.47-.61-.88-1.57-2-1.64.88,1.89-.74,1.8.45,3.71a2.74,2.74,0,0,1-1.68-2.68c-1.29,2.15.3,6,2.07,7.19a7.24,7.24,0,0,0,2.64,1,3.55,3.55,0,0,1-1-.82c-.37-.46-.36-1.22-.74-1.62a4.19,4.19,0,0,0,1.49.66,2.29,2.29,0,0,1-.16-.56,10.34,10.34,0,0,1-.3-1.55c0-.42,0-.85,0-1.26a.73.73,0,0,0,0-.27l0-.07a.25.25,0,0,1,0,.07,2.11,2.11,0,0,0,.51.48,5.73,5.73,0,0,1,.9.81,1.77,1.77,0,0,1,.49,1.15,5.76,5.76,0,0,0,.92-2.62.54.54,0,0,1,0-.18V640a18.88,18.88,0,0,0,.56,1.91,2.57,2.57,0,0,1,0,1.71c.71-.07,1.15-.85,1.65-1.26a4.91,4.91,0,0,1-.31,1.94,3.33,3.33,0,0,1-.81,1.21,4.32,4.32,0,0,0,1.92-.93C445.1,642.16,444.28,638.83,443.44,635.87Z" fill="#fff"/><path d="M490.76,666.36H556V563.87s-2.65-30.15,15.31-44V460.24s-80.52,11.66-80.52,78.23Z" fill="#fff" stroke="#221e1f" stroke-miterlimit="10" stroke-width="0.21"/><path d="M522.61,666.36V534.05s6-37.32,48.67-43.79" fill="none" stroke="#221e1f" stroke-miterlimit="10" stroke-width="0.21"/><polyline points="490.76 644.85 522.61 657.95 555.97 647.73" fill="none" stroke="#221e1f" stroke-miterlimit="10" stroke-width="0.21"/><polyline points="490.76 630.76 522.61 643.86 555.97 633.64" fill="none" stroke="#221e1f" stroke-miterlimit="10" stroke-width="0.21"/><polyline points="490.76 614.68 522.61 627.79 555.97 617.57" fill="none" stroke="#221e1f" stroke-miterlimit="10" stroke-width="0.21"/><polyline points="490.76 598.61 522.61 611.72 555.97 601.49" fill="none" stroke="#221e1f" stroke-miterlimit="10" stroke-width="0.21"/><polyline points="490.76 581.67 522.61 594.78 555.97 584.55" fill="none" stroke="#221e1f" stroke-miterlimit="10" stroke-width="0.21"/><polyline points="490.76 562.01 522.61 575.11 555.97 566.24" fill="none" stroke="#221e1f" stroke-miterlimit="10" stroke-width="0.21"/><polyline points="490.76 545.37 522.61 558.47 555.97 550.67" fill="none" stroke="#221e1f" stroke-miterlimit="10" stroke-width="0.21"/><polyline points="491.36 528.79 522.72 546.1 558.89 538.78" fill="none" stroke="#221e1f" stroke-miterlimit="10" stroke-width="0.21"/><polyline points="495.67 512.03 522.72 534.05 564.37 527.26" fill="none" stroke="#221e1f" stroke-miterlimit="10" stroke-width="0.21"/><polyline points="503.08 498.53 526.94 521.55 571.28 520.23" fill="none" stroke="#221e1f" stroke-miterlimit="10" stroke-width="0.21"/><polyline points="514.15 486.27 533.71 510.86 571.28 510.86" fill="none" stroke="#221e1f" stroke-miterlimit="10" stroke-width="0.21"/><polyline points="527.72 476.31 543.41 501.45 571.28 501.98" fill="none" stroke="#221e1f" stroke-miterlimit="10" stroke-width="0.21"/><polyline points="542.71 468.7 552.08 496.13 571.28 494.4" fill="none" stroke="#221e1f" stroke-miterlimit="10" stroke-width="0.21"/><line x1="554.25" y1="464.44" x2="560.75" y2="492.67" fill="none" stroke="#221e1f" stroke-miterlimit="10" stroke-width="0.21"/><path d="M95.4,653.33s-9.47-14.21,75.41-41.61c76.13-24.59,347.83-133.17,347.83-133.17" fill="none" stroke="#221e1f" stroke-miterlimit="10" stroke-width="0.21"/><polygon points="566.45 471.3 554.25 478.45 566.54 485.44 566.52 481.53 581.22 481.44 581.18 475.11 566.48 475.21 566.45 471.3" fill="#2163a3"/><polygon points="569.26 515.7 581.45 508.55 569.17 501.56 569.19 505.47 554.49 505.56 554.53 511.89 569.23 511.8 569.26 515.7" fill="#2163a3"/><text transform="translate(1485.5 324.52)" font-size="9.68" fill="#414141" font-family="Roboto-Bold, Roboto Bold" font-weight="700"><tspan letter-spacing="-0.01em">T</tspan><tspan x="4.74" y="0">hang </tspan><tspan x="27.6" y="0" letter-spacing="0.02em">k</tspan><tspan x="32.31" y="0" letter-spacing="0em">hu A</tspan></text><text transform="translate(975.84 812.05)" font-size="9.68" fill="#414141" font-family="Roboto-Bold, Roboto Bold" font-weight="700"><tspan letter-spacing="-0.01em">T</tspan><tspan x="4.74" y="0">hang </tspan><tspan x="27.6" y="0" letter-spacing="0.02em">k</tspan><tspan x="32.31" y="0">hu B</tspan></text><g id="Bãi_giữ_xe_máy" data-name="Bãi giữ xe máy"><text transform="translate(1019.74 709.5)" font-size="34.33" fill="#58595b" font-family="Roboto-Regular, Roboto">Bãi giữ xe máy</text><path d="M1122.14,534a19.15,19.15,0,0,0,2.58.14c4.48,0,8.32-1.09,10.89-3.53a10.74,10.74,0,0,0,3.07-8,9.78,9.78,0,0,0-3.57-7.76c-2.24-1.8-5.56-2.68-10.24-2.68a63.1,63.1,0,0,0-10.23.68V546h7.5Zm0-15.77a12.33,12.33,0,0,1,3.12-.29c3.78,0,5.93,1.84,5.93,4.92,0,3.42-2.49,5.47-6.52,5.47a10.73,10.73,0,0,1-2.53-.21Zm0,0" fill="#2163a3"/><path d="M1108,556.36h37.37a8.56,8.56,0,0,0,8.57-8.55V510.44a8.56,8.56,0,0,0-8.57-8.58H1108a8.56,8.56,0,0,0-8.55,8.58v37.37a8.55,8.55,0,0,0,8.55,8.55Zm-1.78-45.42a2.3,2.3,0,0,1,2.3-2.31h36.35a2.3,2.3,0,0,1,2.3,2.31v36.34a2.31,2.31,0,0,1-2.3,2.33h-36.35a2.31,2.31,0,0,1-2.3-2.33Zm0,0" fill="#2163a3"/><path d="M1171.66,638.14a8.69,8.69,0,1,0,8.69,8.69,8.7,8.7,0,0,0-8.69-8.69Zm0,13.07a4.39,4.39,0,1,1,4.38-4.38,4.39,4.39,0,0,1-4.38,4.38Zm0,0" fill="#2163a3"/><path d="M1192,629.9a26.4,26.4,0,0,0-20.32-9.52,26.05,26.05,0,0,0-3.88.29c-.88-5.67-6.21-13.16-11.37-19.3V583.14a2.15,2.15,0,0,0-2.72-2.07l-3.51,1a10.38,10.38,0,0,0-4.78,2.89l-1.84-8.47a2.16,2.16,0,0,0-2.1-1.7h-3.76v-3.1a2.15,2.15,0,0,0-4.3,0v10.84a2.15,2.15,0,0,0,4.3,0v-3.43h2l2.65,12.19a8.71,8.71,0,0,0-2.22,4.32l-6.19,6.8a2.15,2.15,0,0,0,.14,3,2.16,2.16,0,0,0,3-.14l3.74-4.11a8.55,8.55,0,0,0,1,1.56,63.58,63.58,0,0,1,8,12.75c2.4,5.34,3,9.79,1.69,13.2-1.87,5-7.34,8.82-14.64,10.26-7.79,1.54-15.5-.1-19.19-4.07a7,7,0,0,1-2.23-5.32c.23-3.24,3.11-7.14,8.57-11.57l.46-.51A8,8,0,0,0,1118,605H1087a11.36,11.36,0,0,0-11.3,10.41,69.67,69.67,0,0,0-7,8.48c-5.17,7.34-7.78,14.19-7.78,20.36a2.15,2.15,0,0,0,2.15,2.15h7.36c0,.16,0,.32,0,.48a17.58,17.58,0,0,0,34.59,4.45h49.71a17.58,17.58,0,1,0,31.71-14.08l5.31-4.23a2.16,2.16,0,0,0,.31-3.07Zm-86.45-20.64H1118a3.66,3.66,0,0,1,3.45,4.88h-15.94Zm-18.57,0h14.26v4.88h-21a7,7,0,0,1,6.7-4.88Zm1,50.84a13.28,13.28,0,0,1-13.28-13.27c0-.16,0-.32,0-.48h4.59c0,.16,0,.32,0,.48a8.7,8.7,0,0,0,17.39,0c0-.16,0-.32,0-.48h4.59c0,.16,0,.32,0,.48a13.28,13.28,0,0,1-13.27,13.27Zm-4.39-13.27c0-.16,0-.32,0-.48h8.73c0,.16,0,.32,0,.48a4.39,4.39,0,0,1-8.77,0Zm18.51-4.78h-31.62a28,28,0,0,1,4.3-8c5.19-6.67,12.79-9.7,22.58-9,4.33.3,7.06,1.44,8.1,3.39,1.35,2.55.22,7.13-3.36,13.61Zm43.16,4.92h-39.71c0-.05,0-.09,0-.14a17.92,17.92,0,0,0-.11-2c3.33-5.85,6.64-13.12,3.81-18.46-1.78-3.34-5.69-5.25-11.6-5.67-14.18-1-22.18,5.33-26.4,10.81a32.56,32.56,0,0,0-5.3,10.49h-.64c1.22-10.5,10.87-21,13.38-23.6h38.49c-3.73,3.81-5.67,7.37-5.91,10.79a11.2,11.2,0,0,0,3.36,8.55c4.74,5.1,13.84,7.21,23.18,5.37a30.53,30.53,0,0,0,8.25-2.85,26.47,26.47,0,0,0-.82,6.52s0,.09,0,.14Zm6.1-60.79.79-.21v10.52c-2.22-2.4-4.09-4.29-5.15-5.33a6.06,6.06,0,0,1,4.36-5Zm-6.08,13.87a4.53,4.53,0,0,1-.41-4.93c6.25,6.29,18.11,19.56,18.74,26.53a26.18,26.18,0,0,0-7,3.49c.12-5.61-2.34-13.76-11.31-25.09Zm26.42,60.05a13.28,13.28,0,1,1,13.27-13.27,13.29,13.29,0,0,1-13.27,13.27Zm11.91-26.19a17.57,17.57,0,0,0-29.49,12.92V647h-4.56v-.14A22.14,22.14,0,0,1,1187.18,631Zm0,0" fill="#2163a3"/></g><path d="M607.5,469.27a5.46,5.46,0,0,0,.62,0,3.69,3.69,0,0,0,2.59-.84,2.55,2.55,0,0,0,.73-1.89,2.31,2.31,0,0,0-.85-1.84,3.79,3.79,0,0,0-2.44-.64,15.28,15.28,0,0,0-2.43.16v7.87h1.78Zm0-3.75a2.89,2.89,0,0,1,.75-.07c.9,0,1.41.44,1.41,1.17s-.6,1.3-1.56,1.3a2.48,2.48,0,0,1-.6-.05Zm0,0" fill="#2163a3"/><path d="M604.13,474.58H613a2,2,0,0,0,2-2v-8.89a2,2,0,0,0-2-2h-8.89a2,2,0,0,0-2,2v8.89a2,2,0,0,0,2,2Zm-.42-10.8a.54.54,0,0,1,.55-.55h8.64a.54.54,0,0,1,.55.55v8.64a.55.55,0,0,1-.55.56h-8.64a.55.55,0,0,1-.55-.56Zm0,0" fill="#2163a3"/><path d="M636,470.36a1.47,1.47,0,1,0-.09,2.93,1.47,1.47,0,0,0,.09-2.93Zm-.07,2.21a.75.75,0,0,1-.72-.77.74.74,0,1,1,.72.77Zm0,0" fill="#2163a3"/><path d="M639.45,469.07a4.45,4.45,0,0,0-3.38-1.72q-.35,0-.66,0a8.22,8.22,0,0,0-1.83-3.32l.1-3.08a.37.37,0,0,0-.14-.29.32.32,0,0,0-.31-.07l-.6.14a1.69,1.69,0,0,0-.82.47l-.27-1.45a.36.36,0,0,0-.35-.29l-.64,0,0-.53a.35.35,0,0,0-.35-.37.37.37,0,0,0-.38.35l-.05,1.83a.37.37,0,0,0,.35.38.38.38,0,0,0,.38-.36v-.58h.34l.39,2.08a1.51,1.51,0,0,0-.4.72l-1.08,1.12a.36.36,0,0,0,0,.51.41.41,0,0,0,.24.11.39.39,0,0,0,.28-.12L631,464a1.28,1.28,0,0,0,.16.27,10.91,10.91,0,0,1,1.29,2.19,3,3,0,0,1,.22,2.24,3.16,3.16,0,0,1-2.53,1.67,3.63,3.63,0,0,1-3.22-.79,1.18,1.18,0,0,1-.35-.91c.05-.55.56-1.19,1.51-1.91l.08-.09a1.37,1.37,0,0,0,.13-1.38,1.35,1.35,0,0,0-1.18-.77l-5.25-.15a1.92,1.92,0,0,0-2,1.7,11.14,11.14,0,0,0-1.23,1.4,6.14,6.14,0,0,0-1.42,3.4.37.37,0,0,0,.35.38l1.25,0s0,.06,0,.08a3,3,0,0,0,5.83.93l8.4.25a3,3,0,0,0,5.88-.58,3.05,3.05,0,0,0-.44-1.64l.92-.69a.37.37,0,0,0,.14-.24.33.33,0,0,0-.08-.27Zm-14.51-3.93,2.11.06a.61.61,0,0,1,.54.35.62.62,0,0,1,0,.5l-2.69-.08Zm-3.14-.09,2.41.07,0,.82-3.55-.1a1.18,1.18,0,0,1,1.16-.79Zm-.09,8.6a2.25,2.25,0,0,1-2.18-2.31.19.19,0,0,1,0-.08l.77,0v.08a1.46,1.46,0,0,0,1.42,1.51,1.47,1.47,0,0,0,1.52-1.42v-.08l.77,0v.08a2.25,2.25,0,0,1-2.31,2.18Zm-.68-2.27a.22.22,0,0,0,0-.08l1.48,0v.08a.75.75,0,0,1-1.49,0Zm3.16-.71-5.35-.16a4.64,4.64,0,0,1,.77-1.33,4.15,4.15,0,0,1,3.86-1.41c.73.07,1.19.28,1.36.61s0,1.21-.64,2.29Zm7.27,1.05-6.71-.2v0c0-.11,0-.22,0-.33.59-1,1.19-2.18.74-3.1a2.24,2.24,0,0,0-1.93-1,4.86,4.86,0,0,0-4.52,1.7,5.37,5.37,0,0,0-.95,1.74H618a8.13,8.13,0,0,1,2.38-3.92l6.51.19a3.06,3.06,0,0,0-1.06,1.8,1.91,1.91,0,0,0,.53,1.46,4.28,4.28,0,0,0,3.89,1,4.75,4.75,0,0,0,1.41-.44,4.43,4.43,0,0,0-.17,1.1v0Zm1.34-10.25.13,0,0,1.78c-.36-.42-.67-.75-.84-.93a1,1,0,0,1,.76-.82Zm-1.1,2.31a.74.74,0,0,1-.14-.56.79.79,0,0,1,.1-.27c1,1.09,3,3.4,3,4.58a4.36,4.36,0,0,0-1.2.55c0-.95-.33-2.34-1.79-4.3Zm4.17,10.29a2.25,2.25,0,1,1,2.31-2.18,2.25,2.25,0,0,1-2.31,2.18ZM638,469.7a3,3,0,0,0-5,2v0l-.77,0v0a3.75,3.75,0,0,1,3.85-3.63,3.79,3.79,0,0,1,2.6,1.15Zm0,0" fill="#2163a3"/><text transform="translate(593.44 488.79)" font-size="11.29" fill="#58595b" font-family="Roboto-Regular, Roboto">Lối vào - ra<tspan x="-7.38" y="13.55">bãi đỗ xe máy</tspan><tspan x="-5.94" y="27.09">Tầng hầm B1</tspan></text><polygon points="1725.32 381.95 1713.12 389.1 1725.41 396.08 1725.38 392.18 1740.09 392.08 1740.04 385.76 1725.34 385.85 1725.32 381.95" fill="#2163a3"/><polygon points="1729.5 425.55 1741.69 418.4 1729.4 411.42 1729.43 415.32 1714.73 415.42 1714.77 421.75 1729.47 421.65 1729.5 425.55" fill="#2163a3"/><path d="M1655.33,386.59a5.28,5.28,0,0,0,.61,0,3.68,3.68,0,0,0,2.59-.84,2.51,2.51,0,0,0,.74-1.89,2.32,2.32,0,0,0-.86-1.84,3.78,3.78,0,0,0-2.43-.64,15.28,15.28,0,0,0-2.43.16v7.87h1.78Zm0-3.75a2.8,2.8,0,0,1,.74-.07c.9,0,1.41.44,1.41,1.17s-.59,1.3-1.55,1.3a2.43,2.43,0,0,1-.6-.05Zm0,0" fill="#2163a3"/><path d="M1652,391.9h8.89a2,2,0,0,0,2-2V381a2,2,0,0,0-2-2H1652a2,2,0,0,0-2,2v8.89a2,2,0,0,0,2,2Zm-.42-10.8a.55.55,0,0,1,.54-.55h8.65a.55.55,0,0,1,.55.55v8.65a.55.55,0,0,1-.55.55h-8.65a.55.55,0,0,1-.54-.55Zm0,0" fill="#2163a3"/><path d="M1683.8,387.68a1.46,1.46,0,0,0-1.51,1.42,1.49,1.49,0,0,0,1.43,1.52,1.47,1.47,0,0,0,.08-2.94Zm-.06,2.21a.74.74,0,0,1-.72-.76.74.74,0,1,1,.72.76Zm0,0" fill="#2163a3"/><path d="M1687.28,386.39a4.46,4.46,0,0,0-3.39-1.71,3.5,3.5,0,0,0-.65,0,8.21,8.21,0,0,0-1.83-3.32l.09-3.09a.33.33,0,0,0-.13-.29.37.37,0,0,0-.32-.07l-.6.14a1.82,1.82,0,0,0-.82.47l-.27-1.44a.35.35,0,0,0-.34-.3l-.64,0,0-.52a.38.38,0,0,0-.36-.38.35.35,0,0,0-.37.35l-.06,1.84a.37.37,0,0,0,.36.37.35.35,0,0,0,.37-.35l0-.58h.34l.39,2.07a1.48,1.48,0,0,0-.4.72l-1.08,1.12a.37.37,0,0,0,0,.52.37.37,0,0,0,.24.1.39.39,0,0,0,.27-.11l.66-.68a1.17,1.17,0,0,0,.15.27,10.56,10.56,0,0,1,1.3,2.2,3,3,0,0,1,.22,2.24,3.18,3.18,0,0,1-2.53,1.66,3.63,3.63,0,0,1-3.22-.79,1.16,1.16,0,0,1-.35-.91c.05-.54.56-1.19,1.5-1.91l.08-.09a1.34,1.34,0,0,0-1-2.14l-5.25-.16a1.92,1.92,0,0,0-2,1.7,12.76,12.76,0,0,0-1.24,1.4,6.15,6.15,0,0,0-1.41,3.41.36.36,0,0,0,.35.37l1.24,0v.08a3,3,0,0,0,5.83.92l8.4.25a3,3,0,0,0,5.87-.57,2.92,2.92,0,0,0-.44-1.65l.92-.69a.36.36,0,0,0,.15-.24.38.38,0,0,0-.08-.27Zm-14.51-3.93,2.11.07a.58.58,0,0,1,.54.35.6.6,0,0,1,0,.49l-2.7-.08Zm-3.14-.09,2.41.07,0,.83-3.54-.11a1.19,1.19,0,0,1,1.16-.79Zm-.09,8.6a2.25,2.25,0,0,1-2.18-2.31v-.08l.78,0s0,.06,0,.08a1.49,1.49,0,0,0,1.43,1.52,1.47,1.47,0,0,0,1.51-1.43v-.08l.78,0v.08a2.25,2.25,0,0,1-2.31,2.18Zm-.68-2.27a.25.25,0,0,1,0-.08l1.47.05a.11.11,0,0,1,0,.08.74.74,0,0,1-.76.72.75.75,0,0,1-.72-.77ZM1672,388l-5.35-.16a4.77,4.77,0,0,1,.77-1.33,4.15,4.15,0,0,1,3.86-1.41c.73.07,1.19.28,1.35.62s0,1.2-.63,2.28Zm7.27,1.05-6.72-.2v0c0-.11,0-.22,0-.33.59-1,1.19-2.18.73-3.1a2.21,2.21,0,0,0-1.93-1,4.89,4.89,0,0,0-4.52,1.69,5.83,5.83,0,0,0-.95,1.75h-.1a8.13,8.13,0,0,1,2.38-3.92l6.51.2a3,3,0,0,0-1.06,1.79,1.91,1.91,0,0,0,.53,1.46,4.3,4.3,0,0,0,3.89,1,5.41,5.41,0,0,0,1.41-.44,4.35,4.35,0,0,0-.17,1.09v0Zm1.34-10.25.13,0,0,1.78c-.36-.42-.67-.75-.85-.93a1,1,0,0,1,.77-.82Zm-1.1,2.32a.79.79,0,0,1,0-.84c1,1.09,3,3.4,3,4.58a4.42,4.42,0,0,0-1.21.55c0-.94-.32-2.33-1.78-4.29Zm4.16,10.28a2.25,2.25,0,1,1,2.31-2.18,2.25,2.25,0,0,1-2.31,2.18Zm2.15-4.37a3,3,0,0,0-2-.85,3,3,0,0,0-3.06,2.89v0l-.77,0v0a3.73,3.73,0,0,1,6.44-2.48Zm0,0" fill="#2163a3"/><text transform="translate(1641.26 406.12)" font-size="11.29" fill="#58595b" font-family="Roboto-Regular, Roboto">Lối vào - ra<tspan x="-7.38" y="13.55">bãi đỗ xe máy</tspan><tspan x="-5.94" y="27.09">Tầng hầm B2</tspan></text><rect x="1399.03" y="608.89" width="37.23" height="74.92" fill="none" stroke="#6d6e71" stroke-miterlimit="10" stroke-width="0.25"/><rect x="1402.56" y="630.63" width="30.17" height="30.17" rx="1.15" fill="#fff" stroke="#6d6e71" stroke-miterlimit="10" stroke-width="0.25"/><path d="M1418.89,642.8l.43-.37,1.89-1.7a2.94,2.94,0,0,1,.77-.55,2.07,2.07,0,0,1,.9-.23h4.81a2.34,2.34,0,0,1,1.27.41,2.49,2.49,0,0,1,.93,1,2.57,2.57,0,0,1-1.86,3.64,3,3,0,0,1-.52,0h-3.31a.27.27,0,0,0-.22.09l-3.06,2.75-2.54,2.27-2.46,2.21-2,1.8a2.23,2.23,0,0,1-1.52.62h-4.77a2.4,2.4,0,0,1-1.57-.62,2.5,2.5,0,0,1-.78-1.16,2.37,2.37,0,0,1-.09-1.12,2.46,2.46,0,0,1,.91-1.65,2.27,2.27,0,0,1,1.36-.56c.22,0,.43,0,.65,0h3a.3.3,0,0,0,.25-.09l2.2-2,2.18-2a.22.22,0,0,0,.07-.18c0-1.31,0-2.61,0-3.91a1.56,1.56,0,0,1,.5-1.21,1.55,1.55,0,0,1,2.53.62,1.18,1.18,0,0,1,.09.46C1418.9,641.89,1418.89,642.33,1418.89,642.8Zm6.92,1.36h1.75a1.52,1.52,0,0,0,.76-.18,1.59,1.59,0,0,0,.88-1.29,1.52,1.52,0,0,0-.16-.91,1.65,1.65,0,0,0-1.53-.91h-4.39a1.45,1.45,0,0,0-1.06.35l-1.4,1.25-1.8,1.61-2.06,1.86-2.39,2.14-2.75,2.47a.29.29,0,0,1-.22.09h-3.73a1.4,1.4,0,0,0-.53.08,1.64,1.64,0,0,0-1,2.12,1.69,1.69,0,0,0,1.53,1.07h4.54a1.58,1.58,0,0,0,1.07-.42l2.38-2.14,2.66-2.39,2.46-2.2c.94-.85,1.88-1.7,2.83-2.54a.29.29,0,0,1,.18-.07Z" fill="#4d4d4d"/><path d="M1418.89,638.15a1.56,1.56,0,0,1-3.11,0,1.56,1.56,0,1,1,3.11,0Z" fill="#4d4d4d"/></g></svg>