<svg xmlns="http://www.w3.org/2000/svg" viewBox="0 0 1920 1005.71"><title>map</title><g id="Layer_180_degree" data-name="Layer 180 degree"><g id="B2"><g id="background"><path d="M1828.86,81.41v258c0,21.55-9.46,27.54-23.14,32.86-38.58,15-917.15,353-917.15,353S472,927.16,421.4,951.31c-50.08,23.92-99-1.45-99-59.86V782.07H197c-66.93,0-106.21-56.49-106.21-106.26V103.34c0-35.8,26.63-57.81,60.32-57.81h1639C1815.56,45.53,1828.86,66.3,1828.86,81.41Z" fill="#bcbec0" stroke="#888" stroke-miterlimit="10" stroke-width="40"/><path d="M1828,82.35V340.27c0,21.54-9.47,27.53-23.13,32.85-38.57,15-916.68,352.77-916.68,352.77S471.78,927.66,421.22,951.81c-50.05,23.9-99-1.45-99-59.83V782.65H197c-66.9,0-106.16-56.46-106.16-106.2V104.27c0-35.78,26.62-57.78,60.29-57.78H1789.21C1814.67,46.49,1828,67.25,1828,82.35Z" fill="#e6e7e8" stroke="#414042" stroke-miterlimit="10" stroke-width="0.2"/><rect x="443.23" y="297" width="84.95" height="133.08" fill="#fff" stroke="#6d6e71" stroke-miterlimit="10" stroke-width="0.25"/><rect x="486.08" y="410.11" width="37.23" height="14.84" transform="translate(1009.4 835.06) rotate(180)" fill="#ffe6a9" stroke="#58595b" stroke-miterlimit="10" stroke-width="0.2"/><path d="M91.38,116.63H1828.55V80.77c0-13.06-12.84-34.28-37-34.28H154.37c-39.51,0-62.92,25.19-62.92,58.68C91.45,110.19,91.38,113.73,91.38,116.63Z" fill="none" stroke="#231f20" stroke-miterlimit="10" stroke-width="0.25"/><path d="M154.8,676.45A42.15,42.15,0,1,1,197,718.6a42.15,42.15,0,0,1-42.15-42.15" fill="#fff"/><rect x="377.66" y="617.41" width="65.57" height="58.47" fill="#fff" stroke="#6d6e71" stroke-miterlimit="10" stroke-width="0.25"/><rect x="349.93" y="617.52" width="27.74" height="58.37" fill="#fff" stroke="#6d6e71" stroke-miterlimit="10" stroke-width="0.25"/><rect x="349.93" y="597.64" width="93.31" height="19.77" fill="#fff" stroke="#6d6e71" stroke-miterlimit="10" stroke-width="0.25"/><path d="M154.8,676.45A42.15,42.15,0,1,1,197,718.6,42.15,42.15,0,0,1,154.8,676.45Z" fill="none" stroke="#6d6e71" stroke-miterlimit="10" stroke-width="0.75"/><path d="M218.77,731.47A59.18,59.18,0,1,1,197,617.28" fill="none" stroke="#6d6e71" stroke-miterlimit="10" stroke-width="0.5"/><path d="M224.63,745.46A74.34,74.34,0,1,1,197,602.12" fill="none" stroke="#6d6e71" stroke-miterlimit="10" stroke-width="0.5"/><path d="M197,587.81a88.64,88.64,0,1,0,32.8,171S248.9,754,268,727.74" fill="none" stroke="#6d6e71" stroke-miterlimit="10" stroke-width="0.5"/><path d="M281.09,739.06A104.87,104.87,0,1,1,197,571.58" fill="none" stroke="#6d6e71" stroke-miterlimit="10" stroke-width="1.41"/><polygon points="617.43 856.64 617.43 748.89 795.33 748.89 795.33 770.62 617.43 856.64" fill="#fff" stroke="#6d6e71" stroke-miterlimit="10" stroke-width="0.25"/><polyline points="237.43 773.22 230.8 758.39 211.82 715.89" fill="none" stroke="#6d6e71" stroke-miterlimit="10" stroke-width="1.41"/><line x1="164.17" y1="649.98" x2="115.42" y2="610.49" fill="none" stroke="#6d6e71" stroke-miterlimit="10" stroke-width="1.41"/><line x1="195.26" y1="634.3" x2="195.26" y2="571.58" fill="none" stroke="#6d6e71" stroke-miterlimit="10" stroke-width="1.41"/><path d="M321.92,892V748.89H617.43V856.64s-154.37,74.82-190,92.17C372.32,975.71,321.92,950.66,321.92,892Z" fill="#fff" stroke="#6d6e71" stroke-miterlimit="10" stroke-width="0.25"/><rect x="184.03" y="116.63" width="77.23" height="32.65" fill="#fff" stroke="#6d6e71" stroke-miterlimit="10" stroke-width="0.25"/><rect x="389.27" y="656.35" width="53.96" height="19.47" fill="none" stroke="#6d6e71" stroke-miterlimit="10" stroke-width="0.25"/><polyline points="436.45 659.5 440.34 659.5 440.34 672.23 427.01 672.23 427.01 659.5 430.91 659.5" fill="none" stroke="#6d6e71" stroke-miterlimit="10" stroke-width="0.25"/><polyline points="419.02 659.5 422.92 659.5 422.92 672.23 409.59 672.23 409.59 659.5 413.48 659.5" fill="none" stroke="#6d6e71" stroke-miterlimit="10" stroke-width="0.25"/><polyline points="401.7 659.5 405.6 659.5 405.6 672.23 392.27 672.23 392.27 659.5 396.16 659.5" fill="none" stroke="#6d6e71" stroke-miterlimit="10" stroke-width="0.25"/><polyline points="437.8 617.41 443.23 617.41 443.23 597.64 385.38 597.64 385.38 617.41 391.37 617.41" fill="none" stroke="#6d6e71" stroke-miterlimit="10" stroke-width="0.25"/><polyline points="436.6 614.57 440.34 614.57 440.34 601.84 427.02 601.84 427.02 614.57 430.76 614.57" fill="none" stroke="#6d6e71" stroke-miterlimit="10" stroke-width="0.25"/><polyline points="419.86 614.57 423.6 614.57 423.6 601.84 410.27 601.84 410.27 614.57 414.01 614.57" fill="none" stroke="#6d6e71" stroke-miterlimit="10" stroke-width="0.25"/><polyline points="401.12 614.57 404.7 614.57 404.7 601.84 388.4 601.84 388.4 614.57 391.97 614.57" fill="none" stroke="#6d6e71" stroke-miterlimit="10" stroke-width="0.25"/><rect x="1520.69" y="116.63" width="30.43" height="69.15" fill="#fff" stroke="#000101" stroke-miterlimit="10" stroke-width="0.21"/><rect x="1495.89" y="116.63" width="24.8" height="51.35" fill="#fff" stroke="#000101" stroke-miterlimit="10" stroke-width="0.21"/><rect x="1431.29" y="116.63" width="64.6" height="42.92" fill="#fff" stroke="#000101" stroke-miterlimit="10" stroke-width="0.22"/><rect x="1499.89" y="145.31" width="15.9" height="18.99" fill="none" stroke="#221e1f" stroke-miterlimit="10" stroke-width="0.21"/><rect x="1499.89" y="120.82" width="15.9" height="18.99" fill="none" stroke="#221e1f" stroke-miterlimit="10" stroke-width="0.21"/><rect x="424.26" y="116.63" width="103.92" height="32" fill="#fff" stroke="#6d6e71" stroke-miterlimit="10" stroke-width="0.25"/><rect x="1030" y="364.65" width="157.23" height="68.61" fill="#fff" stroke="#6d6e71" stroke-miterlimit="10" stroke-width="0.25"/><rect x="211.83" y="338.42" width="49.45" height="35.71" fill="#fff" stroke="#6d6e71" stroke-miterlimit="10" stroke-width="0.25"/><rect x="211.83" y="374.13" width="49.45" height="65.6" fill="#fff" stroke="#6d6e71" stroke-miterlimit="10" stroke-width="0.25"/><polyline points="226.4 343.18 219.02 343.18 219.02 370.38 255.29 370.38 255.29 343.18 248.27 343.18" fill="none" stroke="#6d6e71" stroke-miterlimit="10" stroke-width="0.25"/><polyline points="226.16 433.89 219.02 433.89 219.02 379.19 255.63 379.19 255.63 433.89 247.89 433.89" fill="#fff" stroke="#6d6e71" stroke-miterlimit="10" stroke-width="0.25"/><path d="M252.51,424.86h-.64V387.74h.64a.64.64,0,0,0,.64-.64.64.64,0,0,0-.64-.64H221.79a.64.64,0,0,0-.64.64.64.64,0,0,0,.64.64h.64v37.12h-.64a.64.64,0,0,0-.64.64.64.64,0,0,0,.64.64h30.72a.64.64,0,0,0,.64-.64.64.64,0,0,0-.64-.64m-1.91,0H237.79V387.74H250.6Zm-26.89-37.12h12.8v37.12h-12.8Z" fill="#6d6e71"/><path d="M235.35,404.89l-5.24-5.63-5.23,5.63.94.87,3.65-3.93v7a.64.64,0,0,0,.64.64.64.64,0,0,0,.64-.64v-7l3.66,3.93Z" fill="#6d6e71"/><path d="M239,403.23l5.24,5.63,5.24-5.63-.94-.87-3.66,3.93v-7a.64.64,0,0,0-.64-.64.64.64,0,0,0-.64.64v7l-3.66-3.93Z" fill="#6d6e71"/><rect x="882.14" y="116.91" width="100.18" height="73.76" fill="#fff" stroke="#231f20" stroke-miterlimit="10" stroke-width="0.21"/><rect x="958.81" y="116.89" width="23.51" height="73.77" fill="#fff" stroke="#000101" stroke-miterlimit="10" stroke-width="0.17"/><rect x="937.2" y="116.89" width="21.61" height="60.12" fill="none" stroke="#000101" stroke-miterlimit="10" stroke-width="0.15"/><rect x="882.14" y="116.91" width="20.99" height="60.1" fill="#fff" stroke="#000101" stroke-miterlimit="10" stroke-width="0.21"/><rect x="941.86" y="157.84" width="12.02" height="12.9" fill="none" stroke="#221e1f" stroke-miterlimit="10" stroke-width="0.21"/><rect x="941.86" y="141.01" width="12.02" height="12.9" fill="none" stroke="#221e1f" stroke-miterlimit="10" stroke-width="0.21"/><rect x="941.86" y="124.17" width="12.02" height="12.9" fill="none" stroke="#221e1f" stroke-miterlimit="10" stroke-width="0.21"/><rect x="886.62" y="157.84" width="12.02" height="12.9" fill="none" stroke="#221e1f" stroke-miterlimit="10" stroke-width="0.21"/><rect x="886.62" y="141.01" width="12.02" height="12.9" fill="none" stroke="#221e1f" stroke-miterlimit="10" stroke-width="0.21"/><rect x="886.62" y="124.17" width="12.02" height="12.9" fill="none" stroke="#221e1f" stroke-miterlimit="10" stroke-width="0.21"/><line x1="284.22" y1="741" x2="232.69" y2="698.78" fill="none" stroke="#6d6e71" stroke-miterlimit="10" stroke-width="0.5"/><path d="M224.63,745.46s17.44-4.25,32.24-26.86" fill="none" stroke="#6d6e71" stroke-miterlimit="10" stroke-width="0.5"/><path d="M218.77,731.47s16-6.9,25.24-23.4" fill="none" stroke="#6d6e71" stroke-miterlimit="10" stroke-width="0.5"/><text transform="translate(1074.03 407.91)" font-size="34.33" fill="#58595b" font-family="Roboto-Regular, Roboto">Sảnh</text><text transform="translate(449.63 315.46)" font-size="15.03" fill="#58595b" font-family="Roboto-Regular, Roboto">Sảnh</text><text transform="translate(488.72 420.05)" font-size="9.68" fill="#58595b" font-family="Roboto-Regular, Roboto">Vietlott</text><path d="M1828,82.35V340.27c0,21.54-9.47,27.53-23.13,32.85-38.57,15-916.68,352.77-916.68,352.77S471.78,927.66,421.22,951.81c-50.05,23.9-99-1.45-99-59.83V782.65H197c-66.9,0-106.16-56.46-106.16-106.2V104.27c0-35.78,26.62-57.78,60.29-57.78H1789.21C1814.67,46.49,1828,67.25,1828,82.35Z" fill="none" stroke="#231f20" stroke-miterlimit="10" stroke-width="1.05"/><polygon points="1434.48 377.4 1517.6 345.07 1517.6 372.28 1452.27 397.92 1434.48 397.92 1434.48 377.4" fill="#fff" stroke="#000101" stroke-miterlimit="10" stroke-width="0.21"/><path d="M1431.1,339.93h-65.21V442.42s2.65,30.15-15.3,44v59.66s80.51-11.66,80.51-78.23Z" fill="#fff" stroke="#221e1f" stroke-miterlimit="10" stroke-width="0.21"/><path d="M1399.26,339.93V472.24s-6,37.32-48.67,43.8" fill="none" stroke="#221e1f" stroke-miterlimit="10" stroke-width="0.21"/><polyline points="1431.1 361.44 1399.26 348.34 1365.89 358.56" fill="none" stroke="#221e1f" stroke-miterlimit="10" stroke-width="0.21"/><polyline points="1431.1 375.54 1399.26 362.43 1365.89 372.65" fill="none" stroke="#221e1f" stroke-miterlimit="10" stroke-width="0.21"/><polyline points="1431.1 391.61 1399.26 378.5 1365.89 388.73" fill="none" stroke="#221e1f" stroke-miterlimit="10" stroke-width="0.21"/><polyline points="1431.1 407.68 1399.26 394.58 1365.89 404.8" fill="none" stroke="#221e1f" stroke-miterlimit="10" stroke-width="0.21"/><polyline points="1431.1 424.62 1399.26 411.52 1365.89 421.74" fill="none" stroke="#221e1f" stroke-miterlimit="10" stroke-width="0.21"/><polyline points="1431.1 444.28 1399.26 431.18 1365.89 440.05" fill="none" stroke="#221e1f" stroke-miterlimit="10" stroke-width="0.21"/><polyline points="1431.1 460.93 1399.26 447.82 1365.89 455.62" fill="none" stroke="#221e1f" stroke-miterlimit="10" stroke-width="0.21"/><polyline points="1430.51 477.5 1399.14 460.2 1362.98 467.51" fill="none" stroke="#221e1f" stroke-miterlimit="10" stroke-width="0.21"/><polyline points="1426.19 494.26 1399.14 472.25 1357.49 479.03" fill="none" stroke="#221e1f" stroke-miterlimit="10" stroke-width="0.21"/><polyline points="1418.78 507.76 1394.92 484.74 1350.59 486.06" fill="none" stroke="#221e1f" stroke-miterlimit="10" stroke-width="0.21"/><polyline points="1407.72 520.03 1388.16 495.44 1350.59 495.44" fill="none" stroke="#221e1f" stroke-miterlimit="10" stroke-width="0.21"/><polyline points="1394.15 529.98 1378.46 504.84 1350.59 504.31" fill="none" stroke="#221e1f" stroke-miterlimit="10" stroke-width="0.21"/><polyline points="1379.15 537.59 1369.79 510.16 1350.59 511.89" fill="none" stroke="#221e1f" stroke-miterlimit="10" stroke-width="0.21"/><line x1="1367.61" y1="541.86" x2="1361.12" y2="513.62" fill="none" stroke="#221e1f" stroke-miterlimit="10" stroke-width="0.21"/><path d="M1826.47,353s9.46,14.2-75.41,41.61c-76.13,24.58-347.84,133.16-347.84,133.16" fill="none" stroke="#221e1f" stroke-miterlimit="10" stroke-width="0.21"/><polygon points="1355.42 534.99 1367.61 527.84 1355.32 520.86 1355.35 524.76 1340.65 524.85 1340.69 531.18 1355.39 531.09 1355.42 534.99" fill="#2163a3"/><polygon points="1352.61 490.59 1340.41 497.74 1352.7 504.73 1352.67 500.82 1367.37 500.73 1367.33 494.4 1352.63 494.5 1352.61 490.59" fill="#2163a3"/><text transform="translate(382.16 687.45)" font-size="9.68" fill="#414141" font-family="Roboto-Bold, Roboto" font-weight="700">Thang khu A</text><text transform="translate(891.81 199.92)" font-size="9.68" fill="#414141" font-family="Roboto-Bold, Roboto" font-weight="700">Thang khu B</text><g id="Bãi_giữ_xe_máy" data-name="Bãi giữ xe máy"><text transform="translate(679.24 495.13)" font-size="34.33" fill="#58595b" font-family="Roboto-Regular, Roboto">Bãi giữ xe máy</text><path d="M781.64,319.65a21.16,21.16,0,0,0,2.58.13c4.48,0,8.32-1.09,10.89-3.53a10.73,10.73,0,0,0,3.07-7.95,9.77,9.77,0,0,0-3.57-7.75c-2.24-1.8-5.56-2.69-10.24-2.69a62.86,62.86,0,0,0-10.23.69v33.07h7.5Zm0-15.77a12.19,12.19,0,0,1,3.12-.3c3.79,0,5.93,1.85,5.93,4.93,0,3.42-2.49,5.46-6.52,5.46a10.82,10.82,0,0,1-2.53-.2Zm0,0" fill="#2163a3"/><path d="M767.47,342h37.37a8.55,8.55,0,0,0,8.57-8.54V296.06a8.56,8.56,0,0,0-8.57-8.57H767.47a8.56,8.56,0,0,0-8.55,8.57v37.38a8.55,8.55,0,0,0,8.55,8.54Zm-1.78-45.42a2.29,2.29,0,0,1,2.3-2.3h36.35a2.29,2.29,0,0,1,2.3,2.3v36.35a2.31,2.31,0,0,1-2.3,2.33H768a2.31,2.31,0,0,1-2.3-2.33Zm0,0" fill="#2163a3"/><path d="M831.16,423.76a8.69,8.69,0,1,0,8.69,8.69,8.7,8.7,0,0,0-8.69-8.69Zm0,13.08a4.39,4.39,0,1,1,4.38-4.39,4.4,4.4,0,0,1-4.38,4.39Zm0,0" fill="#2163a3"/><path d="M851.48,415.53A26.4,26.4,0,0,0,831.16,406a27.47,27.47,0,0,0-3.88.28c-.88-5.66-6.2-13.16-11.37-19.29V368.77a2.16,2.16,0,0,0-2.72-2.08l-3.51,1a10.38,10.38,0,0,0-4.78,2.89l-1.84-8.48a2.15,2.15,0,0,0-2.1-1.69H797.2v-3.1a2.15,2.15,0,0,0-4.3,0v10.83a2.15,2.15,0,1,0,4.3,0v-3.43h2l2.65,12.2a8.67,8.67,0,0,0-2.22,4.31L793.46,388a2.15,2.15,0,0,0,.14,3,2.12,2.12,0,0,0,1.45.56,2.16,2.16,0,0,0,1.59-.7l3.74-4.11a8.55,8.55,0,0,0,1,1.56,63.58,63.58,0,0,1,8,12.75c2.4,5.34,3,9.78,1.69,13.2-1.87,5-7.34,8.82-14.64,10.26-7.79,1.54-15.5-.1-19.19-4.08a7,7,0,0,1-2.23-5.31c.23-3.24,3.11-7.14,8.57-11.58,0,0,.45-.5.46-.5a8,8,0,0,0-6.54-12.51H746.46A11.36,11.36,0,0,0,735.16,401a69.67,69.67,0,0,0-7,8.48c-5.16,7.34-7.78,14.19-7.78,20.36A2.15,2.15,0,0,0,722.5,432h7.36c0,.16,0,.31,0,.47a17.58,17.58,0,0,0,34.59,4.45h49.71a17.58,17.58,0,1,0,31.71-14.08l5.31-4.23a2.15,2.15,0,0,0,.31-3.06ZM765,394.88h12.49a3.67,3.67,0,0,1,3.45,4.89H765Zm-18.57,0h14.26v4.89h-21a7.05,7.05,0,0,1,6.7-4.89Zm1,50.85a13.29,13.29,0,0,1-13.28-13.28c0-.16,0-.31,0-.47h4.59c0,.16,0,.31,0,.47a8.7,8.7,0,0,0,17.39,0c0-.16,0-.31,0-.47h4.59c0,.16,0,.31,0,.47a13.29,13.29,0,0,1-13.27,13.28Zm-4.39-13.28c0-.16,0-.32,0-.47h8.73c0,.15,0,.31,0,.47a4.39,4.39,0,1,1-8.77,0Zm18.51-4.78H729.94a28.29,28.29,0,0,1,4.3-8c5.19-6.66,12.79-9.69,22.58-9,4.33.31,7.06,1.45,8.1,3.4,1.35,2.55.22,7.12-3.36,13.6Zm43.16,4.93H765c0-.05,0-.1,0-.15a17.88,17.88,0,0,0-.11-1.94c3.33-5.85,6.65-13.13,3.81-18.46-1.78-3.35-5.69-5.25-11.6-5.67-14.18-1-22.18,5.33-26.4,10.81a32.56,32.56,0,0,0-5.3,10.49h-.64c1.23-10.51,10.87-21,13.38-23.6h38.49c-3.73,3.81-5.67,7.37-5.91,10.79a11.18,11.18,0,0,0,3.36,8.54c4.74,5.11,13.84,7.22,23.18,5.37a30.18,30.18,0,0,0,8.25-2.84,26.39,26.39,0,0,0-.82,6.51c0,.05,0,.1,0,.15Zm6.1-60.79.79-.22v10.53c-2.22-2.4-4.09-4.29-5.15-5.33a6,6,0,0,1,4.36-5Zm-6.08,13.87a4.46,4.46,0,0,1-.92-3.32,4.4,4.4,0,0,1,.51-1.61c6.25,6.29,18.11,19.56,18.74,26.53a26.15,26.15,0,0,0-7,3.48c.12-5.6-2.34-13.75-11.31-25.08Zm26.42,60.05a13.28,13.28,0,1,1,13.27-13.28,13.3,13.3,0,0,1-13.27,13.28Zm11.91-26.19a17.56,17.56,0,0,0-29.49,12.91v.15H809v-.15a22.14,22.14,0,0,1,37.66-15.79Zm0,0" fill="#2163a3"/></g><path d="M1287.74,542.2a5.28,5.28,0,0,0,.61,0,3.68,3.68,0,0,0,2.59-.84,2.55,2.55,0,0,0,.73-1.89,2.32,2.32,0,0,0-.85-1.85,3.78,3.78,0,0,0-2.43-.64,14.17,14.17,0,0,0-2.44.17V545h1.79Zm0-3.76a3.32,3.32,0,0,1,.74-.07c.9,0,1.41.44,1.41,1.17s-.59,1.31-1.55,1.31a3,3,0,0,1-.6-.05Zm0,0" fill="#2163a3"/><path d="M1284.37,547.51h8.89a2,2,0,0,0,2-2v-8.89a2,2,0,0,0-2-2h-8.89a2,2,0,0,0-2,2v8.89a2,2,0,0,0,2,2Zm-.43-10.81a.55.55,0,0,1,.55-.54h8.65a.54.54,0,0,1,.54.54v8.65a.55.55,0,0,1-.54.55h-8.65a.55.55,0,0,1-.55-.55Zm0,0" fill="#2163a3"/><path d="M1316.21,543.28a1.47,1.47,0,0,0-1.51,1.43,1.46,1.46,0,0,0,1.42,1.51,1.47,1.47,0,1,0,.09-2.94Zm-.07,2.21a.73.73,0,0,1-.71-.76.74.74,0,0,1,1.48,0,.75.75,0,0,1-.77.72Zm0,0" fill="#2163a3"/><path d="M1319.69,542a4.46,4.46,0,0,0-3.39-1.71,3.65,3.65,0,0,0-.66,0,8.24,8.24,0,0,0-1.82-3.32l.09-3.08a.37.37,0,0,0-.14-.3.34.34,0,0,0-.31-.07l-.6.15a1.67,1.67,0,0,0-.82.46l-.27-1.44a.37.37,0,0,0-.35-.3l-.63,0v-.52a.36.36,0,1,0-.72,0l-.06,1.83a.37.37,0,0,0,.73,0l0-.58h.34l.39,2.08a1.4,1.4,0,0,0-.4.71L1310,537a.37.37,0,0,0,0,.52.39.39,0,0,0,.25.1.35.35,0,0,0,.27-.11l.65-.68a1.75,1.75,0,0,0,.16.27,10.83,10.83,0,0,1,1.3,2.2,2.94,2.94,0,0,1,.21,2.24,3.16,3.16,0,0,1-2.52,1.66,3.65,3.65,0,0,1-3.23-.78,1.23,1.23,0,0,1-.35-.91c.06-.55.57-1.2,1.51-1.92l.08-.08a1.32,1.32,0,0,0,.13-1.38,1.35,1.35,0,0,0-1.17-.77l-5.25-.16a1.93,1.93,0,0,0-2,1.71,11.69,11.69,0,0,0-1.23,1.39,6.2,6.2,0,0,0-1.42,3.41.37.37,0,0,0,.36.37l1.24,0v.08a3,3,0,0,0,5.82.93l8.41.25a3,3,0,1,0,5.43-2.22l.92-.69a.35.35,0,0,0,.14-.25.34.34,0,0,0-.07-.27Zm-14.52-3.92,2.12.06a.62.62,0,0,1,.56.84l-2.7-.08ZM1302,538l2.41.07,0,.83-3.54-.11A1.21,1.21,0,0,1,1302,538Zm-.1,8.6a2.24,2.24,0,0,1-2.17-2.31v-.08l.78,0a.19.19,0,0,0,0,.08,1.47,1.47,0,1,0,2.94.08v-.08l.78,0v.08a2.25,2.25,0,0,1-2.32,2.17Zm-.67-2.26a.19.19,0,0,1,0-.08l1.47,0v.08a.74.74,0,1,1-1.48,0Zm3.15-.72-5.34-.16a4.7,4.7,0,0,1,.76-1.33,4.21,4.21,0,0,1,3.87-1.41c.73.08,1.18.28,1.35.62s0,1.2-.64,2.28Zm7.28,1-6.72-.2v0a1.82,1.82,0,0,0,0-.33c.6-1,1.19-2.19.74-3.1a2.19,2.19,0,0,0-1.93-1,4.89,4.89,0,0,0-4.52,1.69,5.6,5.6,0,0,0-1,1.75h-.11a8.22,8.22,0,0,1,2.39-3.93l6.5.2a3,3,0,0,0-1,1.79,1.84,1.84,0,0,0,.53,1.46,4.3,4.3,0,0,0,3.89,1,5.54,5.54,0,0,0,1.41-.44,4.43,4.43,0,0,0-.17,1.1v0Zm1.33-10.25.14,0-.06,1.78c-.36-.42-.67-.74-.84-.93a1,1,0,0,1,.76-.82Zm-1.09,2.32a.69.69,0,0,1-.14-.57.66.66,0,0,1,.09-.27c1,1.1,3,3.4,3,4.58a4.61,4.61,0,0,0-1.21.56c0-1-.32-2.34-1.78-4.3ZM1316.1,547a2.25,2.25,0,1,1,2.31-2.18,2.26,2.26,0,0,1-2.31,2.18Zm2.15-4.37a3,3,0,0,0-2-.85,3,3,0,0,0-3.07,2.88v0l-.77,0v0a3.75,3.75,0,0,1,6.45-2.48Zm0,0" fill="#2163a3"/><text transform="translate(1273.68 497.01)" font-size="11.29" fill="#58595b" font-family="Roboto-Regular, Roboto">Lối vào - ra<tspan x="-7.38" y="13.55">bãi đỗ xe máy</tspan><tspan x="-5.94" y="27.09">Tầng hầm B1</tspan></text><polygon points="196.55 624.34 208.74 617.2 196.46 610.21 196.48 614.11 181.78 614.21 181.82 620.54 196.52 620.44 196.55 624.34" fill="#2163a3"/><polygon points="192.37 580.74 180.17 587.89 192.46 594.88 192.43 590.97 207.13 590.88 207.09 584.55 192.39 584.64 192.37 580.74" fill="#2163a3"/><path d="M239.91,624.87a5.28,5.28,0,0,0,.61,0,3.68,3.68,0,0,0,2.59-.84,2.52,2.52,0,0,0,.74-1.89,2.32,2.32,0,0,0-.86-1.84,3.78,3.78,0,0,0-2.43-.64,15.28,15.28,0,0,0-2.43.16v7.87h1.78Zm0-3.75a2.8,2.8,0,0,1,.74-.07c.9,0,1.41.44,1.41,1.17s-.59,1.3-1.55,1.3a2.43,2.43,0,0,1-.6,0Zm0,0" fill="#2163a3"/><path d="M236.54,630.18h8.89a2,2,0,0,0,2-2v-8.89a2,2,0,0,0-2-2h-8.89a2,2,0,0,0-2,2v8.89a2,2,0,0,0,2,2Zm-.42-10.8a.55.55,0,0,1,.54-.55h8.65a.55.55,0,0,1,.55.55V628a.55.55,0,0,1-.55.55h-8.65a.55.55,0,0,1-.54-.55Zm0,0" fill="#2163a3"/><path d="M268.38,626a1.46,1.46,0,0,0-1.51,1.42,1.49,1.49,0,0,0,1.43,1.52,1.47,1.47,0,0,0,.08-2.94Zm-.06,2.21a.74.74,0,0,1-.72-.76.74.74,0,1,1,.72.76Zm0,0" fill="#2163a3"/><path d="M271.86,624.67a4.46,4.46,0,0,0-3.39-1.71,4.66,4.66,0,0,0-.65,0,8.25,8.25,0,0,0-1.83-3.31l.09-3.09a.33.33,0,0,0-.13-.29.37.37,0,0,0-.32-.07l-.6.14a1.82,1.82,0,0,0-.82.47l-.27-1.44a.35.35,0,0,0-.34-.3l-.64,0,0-.52a.38.38,0,0,0-.36-.38.36.36,0,0,0-.37.35l-.06,1.84a.37.37,0,0,0,.36.37.35.35,0,0,0,.37-.35l0-.58h.34l.39,2.07a1.48,1.48,0,0,0-.4.72l-1.08,1.12a.37.37,0,0,0,0,.52.37.37,0,0,0,.24.1.39.39,0,0,0,.27-.11l.66-.68a.92.92,0,0,0,.16.27,11,11,0,0,1,1.29,2.2,3,3,0,0,1,.22,2.24,3.18,3.18,0,0,1-2.53,1.66,3.63,3.63,0,0,1-3.22-.79,1.16,1.16,0,0,1-.35-.91c.05-.54.56-1.19,1.5-1.91l.08-.09a1.34,1.34,0,0,0-1-2.14l-5.25-.16a1.92,1.92,0,0,0-2,1.7A12.76,12.76,0,0,0,251,623a6.15,6.15,0,0,0-1.41,3.41.36.36,0,0,0,.35.37l1.24,0v.08a3,3,0,0,0,5.83.92l8.4.25a3,3,0,0,0,5.87-.57,2.92,2.92,0,0,0-.44-1.65l.92-.69a.36.36,0,0,0,.15-.24.38.38,0,0,0-.08-.27Zm-14.51-3.93,2.11.06a.63.63,0,0,1,.56.85l-2.7-.08Zm-3.14-.09,2.41.07,0,.83-3.55-.11a1.19,1.19,0,0,1,1.16-.79Zm-.09,8.6a2.25,2.25,0,0,1-2.18-2.31v-.08l.78,0s0,.06,0,.08a1.49,1.49,0,0,0,1.43,1.52,1.47,1.47,0,0,0,1.51-1.43V627l.78,0v.08a2.25,2.25,0,0,1-2.31,2.18Zm-.68-2.27a.25.25,0,0,1,0-.08l1.47.05a.19.19,0,0,1,0,.08.75.75,0,1,1-1.49,0Zm3.16-.71-5.35-.16a4.77,4.77,0,0,1,.77-1.33,4.15,4.15,0,0,1,3.86-1.41c.73.07,1.19.28,1.35.62s0,1.2-.63,2.28Zm7.27,1.05-6.72-.2v0c0-.11,0-.22,0-.33.59-1,1.19-2.18.73-3.1a2.21,2.21,0,0,0-1.93-1,4.91,4.91,0,0,0-4.52,1.69,5.71,5.71,0,0,0-1,1.75h-.1a8.13,8.13,0,0,1,2.38-3.92l6.51.19a3.06,3.06,0,0,0-1.06,1.8,1.91,1.91,0,0,0,.53,1.46,4.3,4.3,0,0,0,3.89,1,5.41,5.41,0,0,0,1.41-.44,4.35,4.35,0,0,0-.17,1.09v0Zm1.34-10.25.13,0,0,1.78c-.36-.42-.67-.75-.85-.93a1,1,0,0,1,.77-.82Zm-1.1,2.32a.79.79,0,0,1-.05-.84c1,1.09,3,3.4,3,4.58a4.42,4.42,0,0,0-1.21.55c.05-.94-.32-2.33-1.78-4.29Zm4.16,10.28a2.25,2.25,0,1,1,2.31-2.18,2.25,2.25,0,0,1-2.31,2.18Zm2.15-4.37a3,3,0,0,0-2-.85,3,3,0,0,0-3.06,2.89v0l-.77,0v0a3.73,3.73,0,0,1,6.44-2.48Zm0,0" fill="#2163a3"/><text transform="translate(225.85 579.68)" font-size="11.29" fill="#58595b" font-family="Roboto-Regular, Roboto">Lối vào - ra<tspan x="-7.38" y="13.55">bãi đỗ xe máy</tspan><tspan x="-5.94" y="27.09">Tầng hầm B2</tspan></text><rect x="485.6" y="322.48" width="37.23" height="74.92" fill="none" stroke="#6d6e71" stroke-miterlimit="10" stroke-width="0.25"/></g><g id="facilityicon"><g id="B2_EXIT_06"><rect x="1453.33" y="130.58" width="23.1" height="15.01" rx="0.72" fill="#db1f29"/><polygon points="1467.04 132.09 1467.04 142.35 1464.8 144.09 1472.23 144.09 1474.47 142.35 1474.47 132.09 1467.04 132.09" fill="#fff"/><path d="M1471.88,136.2a.86.86,0,1,0-.85-.86A.86.86,0,0,0,1471.88,136.2Z" fill="#db1f29" stroke="#fff" stroke-miterlimit="10" stroke-width="0.05"/><path d="M1473.7,137.72l-1.42.14-.87-1.58a.44.44,0,0,0-.28-.22l-.28-.06h0l-1.49-.35a.42.42,0,0,0-.36.07l-1.5,1.1a.45.45,0,0,0-.09.62.44.44,0,0,0,.62.09l1.33-1,.67.16-2.27,3.28-2.21-.11a.44.44,0,1,0,0,.88l2.46.12h0a.44.44,0,0,0,.36-.19l.76-1.09,1.2.87v2a.45.45,0,0,0,.89,0v-2.19a.42.42,0,0,0-.19-.35l-.94-.68,1.06-1.61.51.94a.43.43,0,0,0,.39.23h0l1.72-.17a.44.44,0,1,0-.09-.88Z" fill="#db1f29" stroke="#fff" stroke-miterlimit="10" stroke-width="0.05"/><path d="M1461.87,137.2a3,3,0,0,1-.44,1.34c-.11-1.29-1-2.59-.61-3.82a9.34,9.34,0,0,0-.86,2.3c-.07-.15-.14-.3-.2-.45-.53-1.27-.08-2.46.11-3.75a4.18,4.18,0,0,0-1.66,2.75,12.62,12.62,0,0,0-.1,2c-.36-.54-.89-1.1-.75-1.66a11.25,11.25,0,0,0-.27,1.71,2.84,2.84,0,0,0,0,1c-.29-.39-.55-1-1.24-1,.55,1.2-.47,1.14.28,2.35a1.75,1.75,0,0,1-1.06-1.7c-.81,1.36.19,3.77,1.31,4.55a4.7,4.7,0,0,0,1.67.62,2.57,2.57,0,0,1-.63-.52c-.23-.29-.22-.77-.47-1a2.43,2.43,0,0,0,.94.42,1.2,1.2,0,0,1-.09-.35,5.65,5.65,0,0,1-.19-1c0-.27,0-.54,0-.8a.79.79,0,0,0,0-.17l0,0,0,0a1.3,1.3,0,0,0,.31.31,2.73,2.73,0,0,1,.57.5,1.13,1.13,0,0,1,.32.73,3.54,3.54,0,0,0,.57-1.65v-.11a.2.2,0,0,1,0,.11c0,.4.3.81.36,1.21a1.63,1.63,0,0,1,0,1.07c.44,0,.72-.53,1-.79a3.16,3.16,0,0,1-.2,1.22,2,2,0,0,1-.51.77,2.64,2.64,0,0,0,1.21-.59C1462.92,141.17,1462.4,139.07,1461.87,137.2Z" fill="#fff"/></g><g id="B2_EXIT_05"><rect x="959.01" y="144.73" width="23.1" height="15.01" rx="0.72" fill="#db1f29"/><polygon points="972.72 146.24 972.72 156.5 970.48 158.24 977.92 158.24 980.16 156.5 980.16 146.24 972.72 146.24" fill="#fff"/><path d="M977.57,150.35a.86.86,0,1,0-.86-.86A.87.87,0,0,0,977.57,150.35Z" fill="#db1f29" stroke="#fff" stroke-miterlimit="10" stroke-width="0.05"/><path d="M979.39,151.87,978,152l-.86-1.58a.46.46,0,0,0-.29-.22l-.28-.07h0l-1.48-.35a.45.45,0,0,0-.37.08l-1.49,1.1a.44.44,0,0,0,.52.71l1.33-1,.67.16-2.26,3.27-2.22-.11a.45.45,0,0,0,0,.89l2.46.12h0a.42.42,0,0,0,.36-.19l.76-1.1,1.21.88v1.95a.44.44,0,0,0,.44.44.43.43,0,0,0,.44-.44v-2.18a.47.47,0,0,0-.18-.36l-.94-.68,1.06-1.6.51.94a.45.45,0,0,0,.39.23h0l1.72-.17a.44.44,0,0,0,.39-.49A.43.43,0,0,0,979.39,151.87Z" fill="#db1f29" stroke="#fff" stroke-miterlimit="10" stroke-width="0.05"/><path d="M967.56,151.34a3,3,0,0,1-.44,1.34c-.12-1.28-1-2.59-.61-3.82a9.14,9.14,0,0,0-.86,2.31l-.21-.45c-.52-1.27-.07-2.47.11-3.75a4.14,4.14,0,0,0-1.65,2.75,11.43,11.43,0,0,0-.11,2c-.35-.53-.88-1.09-.75-1.65a11.25,11.25,0,0,0-.27,1.71,3.15,3.15,0,0,0,0,1c-.29-.39-.56-1-1.24-1,.55,1.2-.47,1.14.28,2.34a1.72,1.72,0,0,1-1.06-1.69c-.81,1.36.19,3.76,1.31,4.54a4.45,4.45,0,0,0,1.67.62,2.2,2.2,0,0,1-.63-.51c-.23-.3-.23-.77-.47-1a2.49,2.49,0,0,0,.94.41,1.61,1.61,0,0,1-.1-.35,6.5,6.5,0,0,1-.18-1c0-.26,0-.53,0-.79a.31.31,0,0,0,0-.17s0,0,0,0a.05.05,0,0,1,0,0,1.3,1.3,0,0,0,.32.3,3.92,3.92,0,0,1,.57.51,1.1,1.1,0,0,1,.31.73,3.56,3.56,0,0,0,.58-1.65v0c0,.4.29.8.35,1.2s.18.78,0,1.08c.45,0,.73-.54,1.05-.79a3.17,3.17,0,0,1-.21,1.22,2,2,0,0,1-.51.77,2.79,2.79,0,0,0,1.22-.59C968.61,155.32,968.09,153.21,967.56,151.34Z" fill="#fff"/></g><g id="B2_EXIT_04"><rect x="345.64" y="632.78" width="36.57" height="23.77" rx="0.72" fill="#db1f29"/><polygon points="367.34 635.17 367.34 651.41 363.79 654.16 375.57 654.16 379.12 651.41 379.12 635.17 367.34 635.17" fill="#fff"/><path d="M375,641.67a1.36,1.36,0,1,0-1.36-1.36A1.36,1.36,0,0,0,375,641.67Z" fill="#db1f29" stroke="#fff" stroke-miterlimit="10" stroke-width="0.05"/><path d="M377.9,644.08l-2.26.23-1.37-2.51a.68.68,0,0,0-.45-.34l-.45-.11h0L371,640.8a.68.68,0,0,0-.57.11l-2.37,1.75a.7.7,0,1,0,.83,1.13l2.11-1.56,1.05.25-3.58,5.19-3.51-.18a.71.71,0,0,0-.73.67.7.7,0,0,0,.66.73l3.9.2h0a.71.71,0,0,0,.58-.31l1.2-1.73,1.91,1.38v3.1a.7.7,0,1,0,1.4,0v-3.45a.7.7,0,0,0-.29-.57l-1.49-1.08,1.67-2.54.82,1.49a.69.69,0,0,0,.61.37h.07l2.72-.27a.7.7,0,0,0-.14-1.39Z" fill="#db1f29" stroke="#fff" stroke-miterlimit="10" stroke-width="0.05"/><path d="M359.16,643.25a4.66,4.66,0,0,1-.69,2.12c-.18-2-1.53-4.1-1-6a14.56,14.56,0,0,0-1.36,3.64c-.11-.23-.22-.47-.32-.71-.84-2-.12-3.9.17-5.93-1.42.78-2.33,2.79-2.62,4.35a20.86,20.86,0,0,0-.17,3.16c-.56-.85-1.4-1.74-1.19-2.62a18,18,0,0,0-.42,2.71,4.56,4.56,0,0,0,0,1.51c-.47-.61-.88-1.57-2-1.64.88,1.89-.74,1.8.45,3.71a2.74,2.74,0,0,1-1.68-2.68c-1.29,2.15.3,6,2.08,7.19a7.12,7.12,0,0,0,2.63,1,3.7,3.7,0,0,1-1-.82c-.36-.46-.35-1.22-.74-1.62a4.19,4.19,0,0,0,1.49.66,2.29,2.29,0,0,1-.15-.56,9.22,9.22,0,0,1-.3-1.55c0-.42,0-.84,0-1.26a.77.77,0,0,0,0-.27.43.43,0,0,1,0-.07l0,.07a2.11,2.11,0,0,0,.51.48,5.78,5.78,0,0,1,.9.81,1.78,1.78,0,0,1,.5,1.15,5.75,5.75,0,0,0,.91-2.62v0a19.85,19.85,0,0,0,.56,1.92c.08.52.28,1.22,0,1.7.7-.07,1.14-.85,1.65-1.26a5.07,5.07,0,0,1-.32,1.94,3.26,3.26,0,0,1-.81,1.22,4.38,4.38,0,0,0,1.92-.94C360.82,649.55,360,646.21,359.16,643.25Z" fill="#fff"/></g><g id="B2_EXIT_03"><rect x="456.23" y="120.74" width="36.57" height="23.77" rx="0.72" transform="translate(949.03 265.25) rotate(-180)" fill="#db1f29"/><polygon points="477.94 123.13 477.94 139.37 474.39 142.12 486.17 142.12 489.71 139.37 489.71 123.13 477.94 123.13" fill="#fff"/><path d="M485.61,129.63a1.36,1.36,0,1,0-1.36-1.36A1.36,1.36,0,0,0,485.61,129.63Z" fill="#db1f29" stroke="#fff" stroke-miterlimit="10" stroke-width="0.05"/><path d="M488.49,132l-2.26.23-1.36-2.51a.7.7,0,0,0-.46-.34l-.44-.11h0l-2.35-.55a.68.68,0,0,0-.58.12l-2.37,1.74a.7.7,0,0,0-.14,1,.69.69,0,0,0,1,.15l2.11-1.56,1.06.25-3.59,5.19-3.5-.17a.7.7,0,1,0-.07,1.39l3.89.2h0a.68.68,0,0,0,.57-.3l1.2-1.74,1.92,1.39v3.09a.7.7,0,1,0,1.39,0V136a.68.68,0,0,0-.29-.57l-1.49-1.08,1.68-2.53.81,1.49a.7.7,0,0,0,.61.36h.07l2.72-.27a.7.7,0,1,0-.14-1.39Z" fill="#db1f29" stroke="#fff" stroke-miterlimit="10" stroke-width="0.05"/><path d="M469.76,131.21a4.75,4.75,0,0,1-.7,2.13c-.18-2-1.53-4.11-1-6a14.85,14.85,0,0,0-1.36,3.64c-.11-.23-.22-.47-.32-.71-.83-2-.11-3.9.18-5.93-1.42.78-2.33,2.79-2.62,4.36a18.37,18.37,0,0,0-.17,3.15c-.57-.84-1.4-1.74-1.19-2.62a16.94,16.94,0,0,0-.42,2.71,4.31,4.31,0,0,0,0,1.51c-.47-.61-.89-1.57-2-1.64.87,1.89-.75,1.8.44,3.71a2.77,2.77,0,0,1-1.68-2.68c-1.28,2.15.3,6,2.08,7.19a7.24,7.24,0,0,0,2.64,1,3.53,3.53,0,0,1-1-.81c-.37-.46-.36-1.22-.75-1.63a3.87,3.87,0,0,0,1.49.66,2.18,2.18,0,0,1-.15-.56,10.34,10.34,0,0,1-.3-1.55c0-.42,0-.84,0-1.26a.77.77,0,0,0,0-.27l0-.06a.21.21,0,0,1,0,.06,2.12,2.12,0,0,0,.5.49,5.26,5.26,0,0,1,.9.8,1.73,1.73,0,0,1,.5,1.15,5.6,5.6,0,0,0,.91-2.62v-.17a.48.48,0,0,1,0,.17c0,.65.46,1.28.56,1.92s.28,1.22,0,1.7c.71-.07,1.15-.85,1.65-1.25a4.87,4.87,0,0,1-.32,1.93,3.38,3.38,0,0,1-.8,1.22,4.32,4.32,0,0,0,1.92-.94C471.42,137.51,470.59,134.17,469.76,131.21Z" fill="#fff"/></g><g id="B2_EXIT_02"><rect x="1460.13" y="362.1" width="36.57" height="23.77" rx="0.72" fill="#db1f29"/><polygon points="1481.83 364.48 1481.83 380.73 1478.28 383.48 1490.06 383.48 1493.61 380.73 1493.61 364.48 1481.83 364.48" fill="#fff"/><path d="M1489.51,371a1.36,1.36,0,1,0-1.36-1.36A1.35,1.35,0,0,0,1489.51,371Z" fill="#db1f29" stroke="#fff" stroke-miterlimit="10" stroke-width="0.05"/><path d="M1492.39,373.4l-2.26.22-1.37-2.5a.69.69,0,0,0-.45-.35l-.45-.1h0l-2.35-.56a.72.72,0,0,0-.57.12l-2.37,1.75a.69.69,0,0,0-.15,1,.7.7,0,0,0,1,.15l2.11-1.55,1,.25L1483,377l-3.51-.17a.7.7,0,0,0-.07,1.4l3.9.19h0a.7.7,0,0,0,.58-.3l1.2-1.74,1.91,1.39v3.1a.7.7,0,0,0,1.4,0v-3.46a.73.73,0,0,0-.29-.57l-1.49-1.07,1.67-2.54.82,1.49a.7.7,0,0,0,.61.36h.07l2.72-.27a.7.7,0,0,0-.14-1.39Z" fill="#db1f29" stroke="#fff" stroke-miterlimit="10" stroke-width="0.05"/><path d="M1473.65,372.57a4.59,4.59,0,0,1-.7,2.12c-.18-2-1.52-4.1-1-6.05a14.85,14.85,0,0,0-1.36,3.64c-.11-.23-.22-.46-.32-.71-.84-2-.12-3.89.17-5.93-1.42.78-2.33,2.8-2.62,4.36a20.79,20.79,0,0,0-.17,3.15c-.56-.84-1.4-1.74-1.19-2.61a17.82,17.82,0,0,0-.42,2.7,4.62,4.62,0,0,0,0,1.52c-.47-.61-.88-1.58-2-1.65.88,1.9-.74,1.81.45,3.71a2.73,2.73,0,0,1-1.68-2.68c-1.29,2.16.3,6,2.08,7.2a7.3,7.3,0,0,0,2.63,1,3.9,3.9,0,0,1-1-.82c-.37-.46-.35-1.22-.74-1.62a4,4,0,0,0,1.49.65,2.56,2.56,0,0,1-.16-.55,10.44,10.44,0,0,1-.29-1.56c0-.42,0-.84,0-1.26a.8.8,0,0,0,0-.27l0-.06,0,.06a2.15,2.15,0,0,0,.51.49,5.26,5.26,0,0,1,.9.8,1.77,1.77,0,0,1,.49,1.16,5.65,5.65,0,0,0,.92-2.62v0a18.88,18.88,0,0,0,.56,1.91c.08.52.28,1.22,0,1.7.7-.06,1.14-.85,1.65-1.25a5.14,5.14,0,0,1-.32,1.94,3.3,3.3,0,0,1-.81,1.21,4.26,4.26,0,0,0,1.92-.93C1475.31,378.86,1474.49,375.53,1473.65,372.57Z" fill="#fff"/></g><g id="B2_EXIT_01"><rect x="204.36" y="120.74" width="36.57" height="23.77" rx="0.72" fill="#db1f29"/><polygon points="226.06 123.13 226.06 139.37 222.52 142.12 234.29 142.12 237.84 139.37 237.84 123.13 226.06 123.13" fill="#fff"/><path d="M233.74,129.63a1.36,1.36,0,1,0-1.36-1.36A1.36,1.36,0,0,0,233.74,129.63Z" fill="#db1f29" stroke="#fff" stroke-miterlimit="10" stroke-width="0.05"/><path d="M236.62,132l-2.26.23L233,129.76a.68.68,0,0,0-.45-.34l-.45-.11h0l-2.35-.55a.65.65,0,0,0-.57.12l-2.37,1.74a.7.7,0,1,0,.83,1.13l2.11-1.56,1.06.25-3.59,5.19-3.51-.17a.7.7,0,1,0-.07,1.39l3.9.2h0a.7.7,0,0,0,.57-.3l1.2-1.74,1.91,1.39v3.09a.7.7,0,1,0,1.4,0V136a.7.7,0,0,0-.29-.57l-1.49-1.08,1.67-2.53.82,1.49a.7.7,0,0,0,.61.36H234l2.72-.27a.7.7,0,0,0-.14-1.39Z" fill="#db1f29" stroke="#fff" stroke-miterlimit="10" stroke-width="0.05"/><path d="M217.89,131.21a4.88,4.88,0,0,1-.7,2.13c-.18-2-1.53-4.11-1-6a14.85,14.85,0,0,0-1.36,3.64c-.11-.23-.22-.47-.32-.71-.83-2-.12-3.9.17-5.93-1.42.78-2.33,2.79-2.62,4.36a20.65,20.65,0,0,0-.17,3.15c-.56-.84-1.4-1.74-1.19-2.62a18.15,18.15,0,0,0-.42,2.71,4.56,4.56,0,0,0,0,1.51c-.46-.61-.88-1.57-2-1.64.88,1.89-.74,1.8.45,3.71a2.74,2.74,0,0,1-1.68-2.68c-1.28,2.15.3,6,2.08,7.19a7.1,7.1,0,0,0,2.64,1,3.39,3.39,0,0,1-1-.81c-.37-.46-.36-1.22-.75-1.63a3.87,3.87,0,0,0,1.49.66,2.18,2.18,0,0,1-.15-.56,10.34,10.34,0,0,1-.3-1.55c0-.42,0-.84,0-1.26a.77.77,0,0,0,0-.27l0-.06,0,.06a2.37,2.37,0,0,0,.51.49,5.26,5.26,0,0,1,.9.8A1.73,1.73,0,0,1,213,138a5.71,5.71,0,0,0,.91-2.62v0a19.06,19.06,0,0,0,.56,1.92c.08.52.28,1.22,0,1.7.7-.07,1.15-.85,1.65-1.25a4.87,4.87,0,0,1-.32,1.93,3.26,3.26,0,0,1-.81,1.22,4.36,4.36,0,0,0,1.93-.94C219.55,137.51,218.72,134.17,217.89,131.21Z" fill="#fff"/></g><g id="B2_ESCALATOR_01"><rect x="489.13" y="345.49" width="30.17" height="30.17" rx="1.15" fill="#fff" stroke="#6d6e71" stroke-miterlimit="10" stroke-width="0.25"/><path d="M505.46,357.66l.43-.38,1.89-1.7a3.49,3.49,0,0,1,.77-.55,2.21,2.21,0,0,1,.9-.22h4.81a2.34,2.34,0,0,1,1.27.41,2.56,2.56,0,0,1,1.16,2.5,2.66,2.66,0,0,1-.68,1.43,2.52,2.52,0,0,1-1.41.76,3,3,0,0,1-.52,0h-3.31a.3.3,0,0,0-.22.08l-3.06,2.76L505,365.06l-2.46,2.21-2,1.8a2.23,2.23,0,0,1-1.52.62h-4.77a2.4,2.4,0,0,1-1.57-.62,2.56,2.56,0,0,1,0-3.93,2.27,2.27,0,0,1,1.36-.56c.21,0,.43,0,.65,0h3a.35.35,0,0,0,.26-.09c.73-.67,1.47-1.32,2.2-2l2.17-2a.2.2,0,0,0,.08-.18c0-1.31,0-2.61,0-3.92a1.55,1.55,0,0,1,.5-1.2,1.55,1.55,0,0,1,2.53.62,1.18,1.18,0,0,1,.09.46C505.47,356.75,505.46,357.19,505.46,357.66Zm6.92,1.35h1.75a1.52,1.52,0,0,0,.76-.18,1.59,1.59,0,0,0,.88-1.29,1.5,1.5,0,0,0-.16-.91,1.65,1.65,0,0,0-1.53-.91h-4.39a1.54,1.54,0,0,0-1.06.35l-1.4,1.26-1.8,1.61-2.07,1.86L501,362.94l-2.75,2.47a.29.29,0,0,1-.22.08h-3.73a1.84,1.84,0,0,0-.53.08,1.64,1.64,0,0,0-1,2.13,1.68,1.68,0,0,0,1.53,1.07h4.54a1.53,1.53,0,0,0,1.06-.41l2.39-2.14,2.66-2.39,2.45-2.2,2.84-2.54a.29.29,0,0,1,.18-.07Z" fill="#4d4d4d"/><path d="M505.46,353a1.56,1.56,0,0,1-3.11,0,1.56,1.56,0,1,1,3.11,0Z" fill="#4d4d4d"/></g><g id="B2_ELEVATOR_04"><path d="M246.81,348.34a1,1,0,0,0-.69-.27H228.18a1,1,0,0,0-.69.27.9.9,0,0,0-.27.67v18.72a.91.91,0,0,0,.27.68,1,1,0,0,0,.69.27h17.94a1,1,0,0,0,.69-.27.89.89,0,0,0,.29-.68V349A.88.88,0,0,0,246.81,348.34Zm-1,19.1H228.46V349.31h17.39Z" fill="#6d6e71"/><path d="M233.1,354.7a1.32,1.32,0,0,1-.38-.93,1.27,1.27,0,0,1,.38-.93,1.22,1.22,0,0,1,.92-.38,1.31,1.31,0,0,1,1.32,1.31,1.3,1.3,0,0,1-1.32,1.3,1.25,1.25,0,0,1-.92-.37" fill="#6d6e71"/><path d="M231.42,360.94a.51.51,0,0,0,.58,0,.39.39,0,0,0,.12-.32v-3.54c0-.05,0-.08.08-.11l.14,0,.14,0a.12.12,0,0,1,.07.11v8.14a.54.54,0,0,0,.18.41.6.6,0,0,0,.42.16.58.58,0,0,0,.42-.16.54.54,0,0,0,.18-.41v-5a.18.18,0,0,1,.11-.18l.17,0,.14,0a.17.17,0,0,1,.1.18v5a.57.57,0,0,0,.17.41.6.6,0,0,0,.43.16.56.56,0,0,0,.43-.16.57.57,0,0,0,.17-.41l0-8.14c0-.05,0-.08.08-.11l.14,0,.14,0c.05,0,.08.06.08.11v3.54a.39.39,0,0,0,.12.32.45.45,0,0,0,.28.09.48.48,0,0,0,.27-.09.39.39,0,0,0,.12-.32v-3.75a1.49,1.49,0,0,0-.37-1,1.26,1.26,0,0,0-1-.43H232.5a1,1,0,0,0-.91.43,1.79,1.79,0,0,0-.28,1v3.75a.39.39,0,0,0,.11.32" fill="#6d6e71"/><path d="M240.28,355.07a1.26,1.26,0,0,0,.93-.37,1.32,1.32,0,0,0,.38-.94,1.31,1.31,0,0,0-2.23-.92,1.23,1.23,0,0,0-.39.92,1.29,1.29,0,0,0,.39.94,1.25,1.25,0,0,0,.92.37" fill="#6d6e71"/><path d="M237.69,360.94a.45.45,0,0,0,.28.09.43.43,0,0,0,.28-.09.37.37,0,0,0,.13-.32v-3.54c0-.05,0-.08.08-.11l.14,0,.13,0c.06,0,.08.06.08.11v8.14a.54.54,0,0,0,.18.41.6.6,0,0,0,.43.16.59.59,0,0,0,.41-.16.54.54,0,0,0,.18-.41v-5a.18.18,0,0,1,.11-.18l.17,0,.16,0a.17.17,0,0,1,.1.18v5a.57.57,0,0,0,.61.57.56.56,0,0,0,.41-.16.54.54,0,0,0,.18-.41v-8.14c0-.05,0-.08.09-.11l.13,0,.14,0s.08.06.08.11v3.54a.39.39,0,0,0,.12.32.47.47,0,0,0,.28.09.46.46,0,0,0,.29-.09.37.37,0,0,0,.13-.32v-3.75a1.5,1.5,0,0,0-.38-1,1.33,1.33,0,0,0-1-.43h-2.83a1.07,1.07,0,0,0-.93.43,1.72,1.72,0,0,0-.3,1v3.75a.4.4,0,0,0,.13.32" fill="#6d6e71"/><path d="M243,344.39h-1V341s0-.14-.17-.14h-1.54c-.24,0-.2.17-.2.17v3.4H239c-.31,0,0,.28,0,.28l1.94,2.34a.21.21,0,0,0,.32,0c.23-.23,1.87-2.42,1.87-2.42s.31-.3-.09-.3" fill="#6d6e71"/><path d="M232.12,343.67h1V347s0,.14.17.14h1.53c.26,0,.21-.16.21-.16V343.6h1.1c.31,0,0-.28,0-.28L234.23,341a.22.22,0,0,0-.33,0c-.23.23-1.87,2.41-1.87,2.41s-.3.3.09.3" fill="#6d6e71"/></g><g id="B2_ELEVATOR_03"><path d="M931.64,159.11a1.15,1.15,0,0,1-1.16,1.15H909.67a1.15,1.15,0,0,1-1.16-1.15V138.29a1.16,1.16,0,0,1,1.16-1.15h20.81a1.16,1.16,0,0,1,1.16,1.15Z" fill="none" stroke="#474749" stroke-miterlimit="10" stroke-width="0.32"/><path d="M913.09,143.83a.64.64,0,0,0-.2.48v13.53a.66.66,0,0,0,.2.49.72.72,0,0,0,.5.2h13a.72.72,0,0,0,.5-.2.66.66,0,0,0,.2-.49V144.31a.64.64,0,0,0-.2-.48.72.72,0,0,0-.5-.2h-13A.72.72,0,0,0,913.09,143.83Zm13.27.7v13.1H913.79v-13.1Z" fill="#231f20"/><path d="M917.15,148.42a.91.91,0,0,1-.28-.67.88.88,0,0,1,.28-.67.93.93,0,0,1,1.33,0,.88.88,0,0,1,.28.67.95.95,0,0,1-1.61.67" fill="#231f20"/><path d="M915.94,152.93a.29.29,0,0,0,.2.07.31.31,0,0,0,.21-.07.27.27,0,0,0,.09-.23v-2.55a.1.1,0,0,1,.06-.09l.09,0,.11,0a.11.11,0,0,1,0,.09V156a.38.38,0,0,0,.13.29.44.44,0,0,0,.3.12.45.45,0,0,0,.31-.12.35.35,0,0,0,.13-.29v-3.6c0-.07,0-.11.08-.13l.11,0,.11,0c.05,0,.07.06.07.13V156a.38.38,0,0,0,.13.29.44.44,0,0,0,.3.12.42.42,0,0,0,.32-.12.37.37,0,0,0,.12-.29v-5.88a.11.11,0,0,1,.06-.09l.1,0,.1,0a.1.1,0,0,1,.06.09v2.55a.27.27,0,0,0,.09.23.29.29,0,0,0,.2.07.28.28,0,0,0,.19-.07.27.27,0,0,0,.09-.23V150a1.07,1.07,0,0,0-.27-.71.86.86,0,0,0-.71-.31h-2.07a.7.7,0,0,0-.65.31,1.26,1.26,0,0,0-.21.71v2.71a.27.27,0,0,0,.09.23" fill="#231f20"/><path d="M922.34,148.69a.92.92,0,0,0,.67-.27.94.94,0,0,0,.27-.67.9.9,0,0,0-.27-.67.94.94,0,0,0-1.34,0,.91.91,0,0,0-.28.67,1,1,0,0,0,.28.67.92.92,0,0,0,.67.27" fill="#231f20"/><path d="M920.46,152.93a.31.31,0,0,0,.21.07.31.31,0,0,0,.2-.07.27.27,0,0,0,.09-.23v-2.55a.1.1,0,0,1,.06-.09l.1,0,.1,0a.1.1,0,0,1,.06.09V156a.34.34,0,0,0,.12.29.45.45,0,0,0,.31.12.47.47,0,0,0,.31-.12.37.37,0,0,0,.12-.29v-3.6a.13.13,0,0,1,.08-.13l.12,0,.12,0s.07.06.07.13V156a.35.35,0,0,0,.13.29.4.4,0,0,0,.31.12.44.44,0,0,0,.3-.12.38.38,0,0,0,.13-.29v-5.88a.1.1,0,0,1,.06-.09l.1,0,.1,0a.09.09,0,0,1,.05.09v2.55a.25.25,0,0,0,.1.23.29.29,0,0,0,.2.07.31.31,0,0,0,.21-.07.3.3,0,0,0,.08-.23V150a1.07,1.07,0,0,0-.27-.71.92.92,0,0,0-.73-.31h-2a.75.75,0,0,0-.67.31,1.19,1.19,0,0,0-.22.71v2.71a.27.27,0,0,0,.09.23" fill="#231f20"/><path d="M924,141h-.73v-2.42s0-.1-.13-.1H922c-.18,0-.15.11-.15.11V141h-.78c-.24,0,0,.2,0,.2l1.4,1.7a.15.15,0,0,0,.23,0c.17-.16,1.35-1.74,1.35-1.74s.22-.22-.06-.22" fill="#231f20"/><path d="M916.15,140.45h.73v2.43s0,.1.12.1h1.11c.18,0,.15-.12.15-.12V140.4h.79c.23,0,0-.2,0-.2l-1.4-1.69a.16.16,0,0,0-.24,0c-.16.16-1.35,1.74-1.35,1.74s-.21.21.07.21" fill="#231f20"/></g><g id="B2_ELEVATOR_02"><path d="M431.32,651.28a1.6,1.6,0,0,1-1.6,1.6h-28.8a1.59,1.59,0,0,1-1.6-1.6v-28.8a1.6,1.6,0,0,1,1.6-1.6h28.8a1.61,1.61,0,0,1,1.6,1.6Z" fill="none" stroke="#414042" stroke-miterlimit="10" stroke-width="0.25"/><path d="M425,630.14a1,1,0,0,0-.69-.27H406.35a1,1,0,0,0-.69.27.88.88,0,0,0-.28.67v18.72a.88.88,0,0,0,.28.68,1,1,0,0,0,.69.27h17.94a1,1,0,0,0,.69-.27.92.92,0,0,0,.28-.68V630.81A.91.91,0,0,0,425,630.14Zm-1,19.1H406.62V631.11H424Z" fill="#6d6e71" stroke="#414042" stroke-miterlimit="10"/><path d="M411.26,636.49a1.28,1.28,0,0,1-.38-.93,1.3,1.3,0,0,1,.38-.93,1.27,1.27,0,0,1,.93-.37,1.25,1.25,0,0,1,.92.37,1.27,1.27,0,0,1,.39.93,1.31,1.31,0,0,1-1.31,1.31,1.28,1.28,0,0,1-.93-.38" fill="#6d6e71" stroke="#414042" stroke-miterlimit="10"/><path d="M409.59,642.74a.47.47,0,0,0,.28.09.46.46,0,0,0,.29-.09.39.39,0,0,0,.12-.32v-3.54a.12.12,0,0,1,.08-.11l.14,0,.14,0a.12.12,0,0,1,.08.11V647a.57.57,0,0,0,.17.41.67.67,0,0,0,.43.16.65.65,0,0,0,.42-.16.57.57,0,0,0,.17-.41v-5a.17.17,0,0,1,.12-.18l.16,0a.56.56,0,0,1,.15,0,.18.18,0,0,1,.09.18v5a.54.54,0,0,0,.18.41.65.65,0,0,0,.43.16.59.59,0,0,0,.42-.16.57.57,0,0,0,.17-.41l0-8.14a.11.11,0,0,1,.08-.11l.14,0,.13,0a.11.11,0,0,1,.08.11v3.54a.39.39,0,0,0,.12.32.47.47,0,0,0,.28.09.48.48,0,0,0,.27-.09.39.39,0,0,0,.12-.32v-3.75a1.47,1.47,0,0,0-.37-1,1.24,1.24,0,0,0-1-.43h-2.85a1,1,0,0,0-.92.43,1.76,1.76,0,0,0-.28,1v3.75a.36.36,0,0,0,.12.32" fill="#6d6e71" stroke="#414042" stroke-miterlimit="10"/><path d="M418.45,636.87a1.26,1.26,0,0,0,.92-.38,1.24,1.24,0,0,0,.38-.93,1.28,1.28,0,0,0-1.3-1.3,1.27,1.27,0,0,0-.93.37,1.3,1.3,0,0,0-.38.93,1.3,1.3,0,0,0,1.31,1.31" fill="#6d6e71" stroke="#414042" stroke-miterlimit="10"/><path d="M415.85,642.74a.48.48,0,0,0,.29.09.47.47,0,0,0,.28-.09.39.39,0,0,0,.12-.32v-3.54a.11.11,0,0,1,.09-.11l.13,0,.14,0a.12.12,0,0,1,.08.11V647a.51.51,0,0,0,.18.41.61.61,0,0,0,.42.16.67.67,0,0,0,.42-.16.58.58,0,0,0,.18-.41v-5a.17.17,0,0,1,.1-.18l.17,0,.16,0a.17.17,0,0,1,.1.18v5a.61.61,0,0,0,.17.41.66.66,0,0,0,.86,0,.54.54,0,0,0,.18-.41v-8.14a.12.12,0,0,1,.08-.11l.14,0,.13,0a.11.11,0,0,1,.08.11v3.54a.37.37,0,0,0,.13.32.45.45,0,0,0,.28.09.43.43,0,0,0,.28-.09.37.37,0,0,0,.13-.32v-3.75a1.48,1.48,0,0,0-.38-1,1.31,1.31,0,0,0-1-.43H417a1.05,1.05,0,0,0-.92.43,1.63,1.63,0,0,0-.3,1v3.75a.39.39,0,0,0,.12.32" fill="#6d6e71" stroke="#414042" stroke-miterlimit="10"/><path d="M421.17,626.19h-1v-3.36s0-.14-.18-.14h-1.54c-.24,0-.2.17-.2.17v3.4h-1.09c-.32,0,0,.28,0,.28l1.94,2.34a.22.22,0,0,0,.33,0c.23-.22,1.87-2.41,1.87-2.41s.3-.3-.09-.3" fill="#6d6e71" stroke="#414042" stroke-miterlimit="10"/><path d="M410.28,625.47h1v3.36s0,.14.17.14H413c.25,0,.2-.17.2-.17v-3.4h1.1c.31,0,0-.28,0-.28l-1.94-2.34a.21.21,0,0,0-.32,0c-.23.22-1.88,2.41-1.88,2.41s-.29.3.09.3" fill="#6d6e71" stroke="#414042" stroke-miterlimit="10"/></g><g id="B2_ELEVATOR_01"><path d="M1524.64,133.48a1.16,1.16,0,0,1,1.16-1.16h20.81a1.16,1.16,0,0,1,1.16,1.16v20.81a1.16,1.16,0,0,1-1.16,1.16H1525.8a1.16,1.16,0,0,1-1.16-1.16Z" fill="none" stroke="#231f20" stroke-miterlimit="10" stroke-width="0.32"/><path d="M1539.51,136.16h-.73v-2.43a.11.11,0,0,0-.12-.1h-1.12c-.18,0-.14.12-.14.12v2.46h-.79c-.23,0,0,.2,0,.2l1.4,1.7a.15.15,0,0,0,.23,0c.17-.17,1.35-1.75,1.35-1.75s.22-.21-.06-.21" fill="#231f20"/><path d="M1531.65,135.64h.73v2.43s0,.1.13.1h1.1c.19,0,.15-.12.15-.12v-2.46h.79c.23,0,0-.2,0-.2l-1.4-1.69a.15.15,0,0,0-.23,0c-.17.17-1.36,1.75-1.36,1.75s-.21.21.07.21" fill="#231f20"/><path d="M1543.19,153.52a.66.66,0,0,0,.2-.49V139.5a.66.66,0,0,0-.2-.49.71.71,0,0,0-.5-.19h-13a.71.71,0,0,0-.5.19.66.66,0,0,0-.2.49V153a.66.66,0,0,0,.2.49.71.71,0,0,0,.5.19h13A.71.71,0,0,0,1543.19,153.52Zm-13.27-.7V139.71h12.57v13.11Z" fill="#231f20"/><path d="M1539.13,148.93a.94.94,0,1,1-1.33,1.33.93.93,0,0,1,0-1.33.93.93,0,0,1,1.33,0" fill="#231f20"/><path d="M1540.35,144.41a.4.4,0,0,0-.42,0,.27.27,0,0,0-.09.23v2.56a.09.09,0,0,1-.06.08l-.09,0-.11,0a.1.1,0,0,1,0-.08v-5.88a.42.42,0,0,0-.13-.3.44.44,0,0,0-.3-.12.45.45,0,0,0-.31.12.37.37,0,0,0-.12.3v3.6a.12.12,0,0,1-.09.12l-.11,0-.11,0a.11.11,0,0,1-.07-.12v-3.6a.42.42,0,0,0-.13-.3.44.44,0,0,0-.3-.12.42.42,0,0,0-.32.12.41.41,0,0,0-.12.3v5.88s0,.06-.06.08l-.1,0-.1,0a.09.09,0,0,1-.06-.08v-2.56a.27.27,0,0,0-.09-.23.34.34,0,0,0-.2-.06.33.33,0,0,0-.19.06.27.27,0,0,0-.09.23v2.71a1.05,1.05,0,0,0,.27.71.87.87,0,0,0,.71.32h2.07a.74.74,0,0,0,.66-.32,1.31,1.31,0,0,0,.2-.71v-2.71a.3.3,0,0,0-.08-.23" fill="#231f20"/><path d="M1533.94,148.65a.89.89,0,0,0-.67.28,1,1,0,0,0,0,1.33.94.94,0,0,0,1.34,0,.93.93,0,0,0,0-1.33.89.89,0,0,0-.67-.28" fill="#231f20"/><path d="M1535.82,144.41a.37.37,0,0,0-.21-.06.36.36,0,0,0-.2.06.27.27,0,0,0-.09.23v2.56a.09.09,0,0,1-.06.08l-.1,0-.1,0a.08.08,0,0,1,0-.08v-5.88a.38.38,0,0,0-.13-.3.45.45,0,0,0-.31-.12.42.42,0,0,0-.3.12.38.38,0,0,0-.13.3v3.6a.12.12,0,0,1-.08.12l-.12,0-.12,0a.11.11,0,0,1-.07-.12v-3.6a.41.41,0,0,0-.12-.3.46.46,0,0,0-.62,0,.42.42,0,0,0-.13.3v5.88a.09.09,0,0,1-.06.08l-.1,0-.1,0a.08.08,0,0,1,0-.08v-2.56a.27.27,0,0,0-.09-.23.36.36,0,0,0-.2-.06.38.38,0,0,0-.22.06.3.3,0,0,0-.08.23v2.71a1.05,1.05,0,0,0,.27.71.93.93,0,0,0,.73.32h2a.76.76,0,0,0,.67-.32,1.17,1.17,0,0,0,.22-.71v-2.71a.27.27,0,0,0-.09-.23" fill="#231f20"/></g></g></g></g></svg>