<svg id="Layer_0_degree" data-name="Layer 0 degree" xmlns="http://www.w3.org/2000/svg" viewBox="0 0 1920 1005.71"><title>MAPv33</title><g id="B2"><g id="background"><path d="M93,924.89V666.83c0-21.55,9.47-27.54,23.14-32.86,38.59-15,917.16-353,917.16-353S1449.88,79.14,1500.47,55c50.08-23.91,99,1.45,99,59.86V224.22h125.38c66.94,0,106.21,56.49,106.21,106.26V903c0,35.8-26.63,57.81-60.31,57.81h-1639C106.3,960.76,93,940,93,924.89Z" fill="#bcbec0" stroke="#888" stroke-miterlimit="10" stroke-width="40"/><path d="M93.9,923.94V666c0-21.54,9.46-27.53,23.13-32.84,38.56-15,916.68-352.78,916.68-352.78S1450.08,78.63,1500.64,54.49c50-23.91,99,1.44,99,59.83V223.64h125.32c66.9,0,106.15,56.46,106.15,106.2V902c0,35.78-26.61,57.78-60.28,57.78H132.65C107.19,959.8,93.9,939,93.9,923.94Z" fill="#e6e7e8" stroke="#414042" stroke-miterlimit="10" stroke-width="0.2"/><rect x="1393.68" y="576.21" width="84.95" height="133.08" fill="#fff" stroke="#6d6e71" stroke-miterlimit="10" stroke-width="0.25"/><rect x="1398.55" y="581.34" width="37.23" height="14.84" fill="#ffe6a9" stroke="#58595b" stroke-miterlimit="10" stroke-width="0.2"/><path d="M1830.49,889.66H93.32v35.86c0,13.07,12.84,34.28,37,34.28H1767.5c39.5,0,62.92-25.18,62.92-58.68C1830.42,896.1,1830.49,892.56,1830.49,889.66Z" fill="none" stroke="#231f20" stroke-miterlimit="10" stroke-width="0.25"/><path d="M1767.06,329.84a42.15,42.15,0,1,1-42.15-42.14,42.15,42.15,0,0,1,42.15,42.14" fill="#fff"/><rect x="1478.63" y="330.41" width="65.57" height="58.47" fill="#fff" stroke="#6d6e71" stroke-miterlimit="10" stroke-width="0.25"/><rect x="1544.2" y="330.41" width="27.74" height="58.37" fill="#fff" stroke="#6d6e71" stroke-miterlimit="10" stroke-width="0.25"/><rect x="1478.63" y="388.88" width="93.31" height="19.77" fill="#fff" stroke="#6d6e71" stroke-miterlimit="10" stroke-width="0.25"/><path d="M1767.06,329.84a42.15,42.15,0,1,1-42.15-42.14A42.15,42.15,0,0,1,1767.06,329.84Z" fill="none" stroke="#6d6e71" stroke-miterlimit="10" stroke-width="0.75"/><path d="M1703.09,274.82A59.18,59.18,0,1,1,1724.91,389" fill="none" stroke="#6d6e71" stroke-miterlimit="10" stroke-width="0.5"/><path d="M1697.24,260.84a74.34,74.34,0,1,1,27.67,143.33" fill="none" stroke="#6d6e71" stroke-miterlimit="10" stroke-width="0.5"/><path d="M1724.91,418.48a88.64,88.64,0,1,0-32.79-171s-19.15,4.86-38.29,31.08" fill="none" stroke="#6d6e71" stroke-miterlimit="10" stroke-width="0.5"/><path d="M1640.78,267.23a104.88,104.88,0,1,1,84.13,167.49" fill="none" stroke="#6d6e71" stroke-miterlimit="10" stroke-width="1.41"/><polygon points="1304.43 149.65 1304.43 257.4 1126.54 257.4 1126.54 235.68 1304.43 149.65" fill="#fff" stroke="#6d6e71" stroke-miterlimit="10" stroke-width="0.25"/><polyline points="1684.44 233.07 1691.07 247.9 1710.05 290.4" fill="none" stroke="#6d6e71" stroke-miterlimit="10" stroke-width="1.41"/><line x1="1757.7" y1="356.32" x2="1806.44" y2="395.81" fill="none" stroke="#6d6e71" stroke-miterlimit="10" stroke-width="1.41"/><line x1="1726.6" y1="371.99" x2="1726.6" y2="434.72" fill="none" stroke="#6d6e71" stroke-miterlimit="10" stroke-width="1.41"/><path d="M1599.94,114.32V257.4H1304.43V149.65s154.37-74.81,190-92.17C1549.54,30.58,1599.94,55.64,1599.94,114.32Z" fill="#fff" stroke="#6d6e71" stroke-miterlimit="10" stroke-width="0.25"/><rect x="1660.61" y="857.02" width="77.23" height="32.65" fill="#fff" stroke="#6d6e71" stroke-miterlimit="10" stroke-width="0.25"/><rect x="1478.63" y="330.47" width="53.96" height="19.47" fill="none" stroke="#6d6e71" stroke-miterlimit="10" stroke-width="0.25"/><polyline points="1485.42 346.79 1481.52 346.79 1481.52 334.06 1494.85 334.06 1494.85 346.79 1490.96 346.79" fill="none" stroke="#6d6e71" stroke-miterlimit="10" stroke-width="0.25"/><polyline points="1502.84 346.79 1498.95 346.79 1498.95 334.06 1512.28 334.06 1512.28 346.79 1508.39 346.79" fill="none" stroke="#6d6e71" stroke-miterlimit="10" stroke-width="0.25"/><polyline points="1520.16 346.79 1516.27 346.79 1516.27 334.06 1529.6 334.06 1529.6 346.79 1525.71 346.79" fill="none" stroke="#6d6e71" stroke-miterlimit="10" stroke-width="0.25"/><polyline points="1484.07 388.88 1478.63 388.88 1478.63 408.65 1536.49 408.65 1536.49 388.88 1530.5 388.88" fill="none" stroke="#6d6e71" stroke-miterlimit="10" stroke-width="0.25"/><polyline points="1485.27 391.73 1481.52 391.73 1481.52 404.46 1494.85 404.46 1494.85 391.73 1491.11 391.73" fill="none" stroke="#6d6e71" stroke-miterlimit="10" stroke-width="0.25"/><polyline points="1502.01 391.73 1498.26 391.73 1498.26 404.46 1511.59 404.46 1511.59 391.73 1507.85 391.73" fill="none" stroke="#6d6e71" stroke-miterlimit="10" stroke-width="0.25"/><polyline points="1520.74 391.73 1517.16 391.73 1517.16 404.46 1533.46 404.46 1533.46 391.73 1529.89 391.73" fill="none" stroke="#6d6e71" stroke-miterlimit="10" stroke-width="0.25"/><rect x="370.74" y="820.51" width="30.43" height="69.15" fill="#fff" stroke="#000101" stroke-miterlimit="10" stroke-width="0.21"/><rect x="401.17" y="838.31" width="24.8" height="51.35" fill="#fff" stroke="#000101" stroke-miterlimit="10" stroke-width="0.21"/><rect x="425.97" y="846.74" width="64.6" height="42.92" fill="#fff" stroke="#000101" stroke-miterlimit="10" stroke-width="0.22"/><rect x="406.07" y="842" width="15.9" height="18.99" fill="none" stroke="#221e1f" stroke-miterlimit="10" stroke-width="0.21"/><rect x="406.07" y="866.48" width="15.9" height="18.99" fill="none" stroke="#221e1f" stroke-miterlimit="10" stroke-width="0.21"/><rect x="1393.68" y="857.67" width="103.92" height="32" fill="#fff" stroke="#6d6e71" stroke-miterlimit="10" stroke-width="0.25"/><rect x="734.64" y="573.03" width="157.23" height="68.61" fill="#fff" stroke="#6d6e71" stroke-miterlimit="10" stroke-width="0.25"/><rect x="1660.58" y="566.56" width="49.45" height="35.71" fill="#fff" stroke="#6d6e71" stroke-miterlimit="10" stroke-width="0.25"/><rect x="1660.58" y="602.27" width="49.45" height="65.6" fill="#fff" stroke="#6d6e71" stroke-miterlimit="10" stroke-width="0.25"/><polyline points="1675.15 571.32 1667.78 571.32 1667.78 598.51 1704.05 598.51 1704.05 571.32 1697.02 571.32" fill="none" stroke="#6d6e71" stroke-miterlimit="10" stroke-width="0.25"/><polyline points="1674.92 662.03 1667.78 662.03 1667.78 607.33 1704.38 607.33 1704.38 662.03 1696.65 662.03" fill="#fff" stroke="#6d6e71" stroke-miterlimit="10" stroke-width="0.25"/><path d="M1701.27,653h-.64V615.88h.64a.64.64,0,0,0,.64-.64.64.64,0,0,0-.64-.64h-30.72a.64.64,0,1,0,0,1.28h.64V653h-.64a.64.64,0,1,0,0,1.28h30.72a.64.64,0,0,0,.64-.64.64.64,0,0,0-.64-.64m-1.92,0h-12.8V615.88h12.8Zm-26.88-37.12h12.8V653h-12.8Z" fill="#6d6e71"/><path d="M1684.1,633l-5.23-5.63-5.24,5.63.94.87,3.66-3.93v7a.64.64,0,0,0,.64.64.64.64,0,0,0,.64-.64v-7l3.65,3.93Z" fill="#6d6e71"/><path d="M1687.71,631.37,1693,637l5.23-5.63-.93-.87-3.66,3.93v-7a.64.64,0,0,0-.64-.64.64.64,0,0,0-.64.64v7l-3.66-3.93Z" fill="#6d6e71"/><rect x="939.55" y="815.63" width="100.18" height="73.76" fill="#fff" stroke="#231f20" stroke-miterlimit="10" stroke-width="0.21"/><rect x="939.55" y="815.63" width="23.51" height="73.77" fill="#fff" stroke="#000101" stroke-miterlimit="10" stroke-width="0.17"/><rect x="963.06" y="829.28" width="21.61" height="60.12" fill="none" stroke="#000101" stroke-miterlimit="10" stroke-width="0.15"/><rect x="1018.74" y="829.28" width="20.99" height="60.1" fill="#fff" stroke="#000101" stroke-miterlimit="10" stroke-width="0.21"/><rect x="967.98" y="835.55" width="12.02" height="12.9" fill="none" stroke="#221e1f" stroke-miterlimit="10" stroke-width="0.21"/><rect x="967.98" y="852.38" width="12.02" height="12.9" fill="none" stroke="#221e1f" stroke-miterlimit="10" stroke-width="0.21"/><rect x="967.98" y="869.22" width="12.02" height="12.9" fill="none" stroke="#221e1f" stroke-miterlimit="10" stroke-width="0.21"/><rect x="1023.22" y="835.55" width="12.02" height="12.9" fill="none" stroke="#221e1f" stroke-miterlimit="10" stroke-width="0.21"/><rect x="1023.22" y="852.38" width="12.02" height="12.9" fill="none" stroke="#221e1f" stroke-miterlimit="10" stroke-width="0.21"/><rect x="1023.22" y="869.22" width="12.02" height="12.9" fill="none" stroke="#221e1f" stroke-miterlimit="10" stroke-width="0.21"/><line x1="1637.65" y1="265.29" x2="1689.18" y2="307.51" fill="none" stroke="#6d6e71" stroke-miterlimit="10" stroke-width="0.5"/><path d="M1697.24,260.84s-17.44,4.24-32.25,26.86" fill="none" stroke="#6d6e71" stroke-miterlimit="10" stroke-width="0.5"/><path d="M1703.09,274.82s-16,6.91-25.24,23.41" fill="none" stroke="#6d6e71" stroke-miterlimit="10" stroke-width="0.5"/><text transform="translate(770.94 618.45)" font-size="34.33" fill="#58595b" font-family="Roboto-Regular, Roboto">Sảnh</text><text transform="translate(1438.56 699.63)" font-size="15.03" fill="#58595b" font-family="Roboto-Regular, Roboto">Sảnh</text><text transform="translate(1402.16 591.9)" font-size="9.68" fill="#58595b" font-family="Roboto-Regular, Roboto">Vietlott</text><path d="M93.9,923.94V666c0-21.54,9.46-27.53,23.13-32.84,38.56-15,916.68-352.78,916.68-352.78S1450.08,78.63,1500.64,54.49c50-23.91,99,1.44,99,59.83V223.64h125.32c66.9,0,106.15,56.46,106.15,106.2V902c0,35.78-26.61,57.78-60.28,57.78H132.65C107.19,959.8,93.9,939,93.9,923.94Z" fill="none" stroke="#231f20" stroke-miterlimit="10" stroke-width="1.05"/><path d="M490.76,666.36H556V563.87s-2.65-30.15,15.31-44V460.24s-80.52,11.66-80.52,78.23Z" fill="#fff" stroke="#221e1f" stroke-miterlimit="10" stroke-width="0.21"/><path d="M522.61,666.36V534.05s6-37.32,48.67-43.79" fill="none" stroke="#221e1f" stroke-miterlimit="10" stroke-width="0.21"/><polyline points="490.76 644.85 522.61 657.95 555.97 647.73" fill="none" stroke="#221e1f" stroke-miterlimit="10" stroke-width="0.21"/><polyline points="490.76 630.76 522.61 643.86 555.97 633.64" fill="none" stroke="#221e1f" stroke-miterlimit="10" stroke-width="0.21"/><polyline points="490.76 614.68 522.61 627.79 555.97 617.57" fill="none" stroke="#221e1f" stroke-miterlimit="10" stroke-width="0.21"/><polyline points="490.76 598.61 522.61 611.72 555.97 601.49" fill="none" stroke="#221e1f" stroke-miterlimit="10" stroke-width="0.21"/><polyline points="490.76 581.67 522.61 594.78 555.97 584.55" fill="none" stroke="#221e1f" stroke-miterlimit="10" stroke-width="0.21"/><polyline points="490.76 562.01 522.61 575.11 555.97 566.24" fill="none" stroke="#221e1f" stroke-miterlimit="10" stroke-width="0.21"/><polyline points="490.76 545.37 522.61 558.47 555.97 550.67" fill="none" stroke="#221e1f" stroke-miterlimit="10" stroke-width="0.21"/><polyline points="491.36 528.79 522.72 546.1 558.89 538.78" fill="none" stroke="#221e1f" stroke-miterlimit="10" stroke-width="0.21"/><polyline points="495.67 512.03 522.72 534.05 564.37 527.26" fill="none" stroke="#221e1f" stroke-miterlimit="10" stroke-width="0.21"/><polyline points="503.08 498.53 526.94 521.55 571.28 520.23" fill="none" stroke="#221e1f" stroke-miterlimit="10" stroke-width="0.21"/><polyline points="514.15 486.27 533.71 510.86 571.28 510.86" fill="none" stroke="#221e1f" stroke-miterlimit="10" stroke-width="0.21"/><polyline points="527.72 476.31 543.41 501.45 571.28 501.98" fill="none" stroke="#221e1f" stroke-miterlimit="10" stroke-width="0.21"/><polyline points="542.71 468.7 552.08 496.13 571.28 494.4" fill="none" stroke="#221e1f" stroke-miterlimit="10" stroke-width="0.21"/><line x1="554.25" y1="464.44" x2="560.75" y2="492.67" fill="none" stroke="#221e1f" stroke-miterlimit="10" stroke-width="0.21"/><path d="M95.4,653.33s-9.47-14.21,75.41-41.61c76.13-24.59,347.83-133.17,347.83-133.17" fill="none" stroke="#221e1f" stroke-miterlimit="10" stroke-width="0.21"/><polygon points="566.45 471.3 554.25 478.45 566.54 485.44 566.52 481.53 581.22 481.44 581.18 475.11 566.48 475.21 566.45 471.3" fill="#2163a3"/><polygon points="569.26 515.7 581.45 508.55 569.17 501.56 569.19 505.47 554.49 505.56 554.53 511.89 569.23 511.8 569.26 515.7" fill="#2163a3"/><text transform="translate(1482.27 324.52)" font-size="9.68" fill="#414141" font-family="Roboto-Bold, Roboto" font-weight="700">Thang khu A</text><text transform="translate(971.92 812.05)" font-size="9.68" fill="#414141" font-family="Roboto-Bold, Roboto" font-weight="700">Thang khu B</text><g id="Bãi_giữ_xe_máy" data-name="Bãi giữ xe máy"><text transform="translate(1019.74 709.5)" font-size="34.33" fill="#58595b" font-family="Roboto-Regular, Roboto">Bãi giữ xe máy</text><path d="M1122.14,534a19.15,19.15,0,0,0,2.58.14c4.48,0,8.32-1.09,10.89-3.53a10.74,10.74,0,0,0,3.07-8,9.78,9.78,0,0,0-3.57-7.76c-2.24-1.8-5.56-2.68-10.24-2.68a63.1,63.1,0,0,0-10.23.68V546h7.5Zm0-15.77a12.33,12.33,0,0,1,3.12-.29c3.78,0,5.93,1.84,5.93,4.92,0,3.42-2.49,5.47-6.52,5.47a10.73,10.73,0,0,1-2.53-.21Zm0,0" fill="#2163a3"/><path d="M1108,556.36h37.37a8.56,8.56,0,0,0,8.57-8.55V510.44a8.56,8.56,0,0,0-8.57-8.58H1108a8.56,8.56,0,0,0-8.55,8.58v37.37a8.55,8.55,0,0,0,8.55,8.55Zm-1.78-45.42a2.3,2.3,0,0,1,2.3-2.31h36.35a2.3,2.3,0,0,1,2.3,2.31v36.34a2.31,2.31,0,0,1-2.3,2.33h-36.35a2.31,2.31,0,0,1-2.3-2.33Zm0,0" fill="#2163a3"/><path d="M1171.66,638.14a8.69,8.69,0,1,0,8.69,8.69,8.7,8.7,0,0,0-8.69-8.69Zm0,13.07a4.39,4.39,0,1,1,4.38-4.38,4.39,4.39,0,0,1-4.38,4.38Zm0,0" fill="#2163a3"/><path d="M1192,629.9a26.4,26.4,0,0,0-20.32-9.52,26.05,26.05,0,0,0-3.88.29c-.88-5.67-6.21-13.16-11.37-19.3V583.14a2.15,2.15,0,0,0-2.72-2.07l-3.51,1a10.38,10.38,0,0,0-4.78,2.89l-1.84-8.47a2.16,2.16,0,0,0-2.1-1.7h-3.76v-3.1a2.15,2.15,0,0,0-4.3,0v10.84a2.15,2.15,0,0,0,4.3,0v-3.43h2l2.65,12.19a8.71,8.71,0,0,0-2.22,4.32l-6.19,6.8a2.15,2.15,0,0,0,.14,3,2.16,2.16,0,0,0,3-.14l3.74-4.11a8.55,8.55,0,0,0,1,1.56,63.58,63.58,0,0,1,8,12.75c2.4,5.34,3,9.79,1.69,13.2-1.87,5-7.34,8.82-14.64,10.26-7.79,1.54-15.5-.1-19.19-4.07a7,7,0,0,1-2.23-5.32c.23-3.24,3.11-7.14,8.57-11.57l.46-.51A8,8,0,0,0,1118,605H1087a11.36,11.36,0,0,0-11.3,10.41,69.67,69.67,0,0,0-7,8.48c-5.17,7.34-7.78,14.19-7.78,20.36a2.15,2.15,0,0,0,2.15,2.15h7.36c0,.16,0,.32,0,.48a17.58,17.58,0,0,0,34.59,4.45h49.71a17.58,17.58,0,1,0,31.71-14.08l5.31-4.23a2.16,2.16,0,0,0,.31-3.07Zm-86.45-20.64H1118a3.66,3.66,0,0,1,3.45,4.88h-15.94Zm-18.57,0h14.26v4.88h-21a7,7,0,0,1,6.7-4.88Zm1,50.84a13.28,13.28,0,0,1-13.28-13.27c0-.16,0-.32,0-.48h4.59c0,.16,0,.32,0,.48a8.7,8.7,0,0,0,17.39,0c0-.16,0-.32,0-.48h4.59c0,.16,0,.32,0,.48a13.28,13.28,0,0,1-13.27,13.27Zm-4.39-13.27c0-.16,0-.32,0-.48h8.73c0,.16,0,.32,0,.48a4.39,4.39,0,0,1-8.77,0Zm18.51-4.78h-31.62a28,28,0,0,1,4.3-8c5.19-6.67,12.79-9.7,22.58-9,4.33.3,7.06,1.44,8.1,3.39,1.35,2.55.22,7.13-3.36,13.61Zm43.16,4.92h-39.71c0-.05,0-.09,0-.14a17.92,17.92,0,0,0-.11-2c3.33-5.85,6.64-13.12,3.81-18.46-1.78-3.34-5.69-5.25-11.6-5.67-14.18-1-22.18,5.33-26.4,10.81a32.56,32.56,0,0,0-5.3,10.49h-.64c1.22-10.5,10.87-21,13.38-23.6h38.49c-3.73,3.81-5.67,7.37-5.91,10.79a11.2,11.2,0,0,0,3.36,8.55c4.74,5.1,13.84,7.21,23.18,5.37a30.53,30.53,0,0,0,8.25-2.85,26.47,26.47,0,0,0-.82,6.52s0,.09,0,.14Zm6.1-60.79.79-.21v10.52c-2.22-2.4-4.09-4.29-5.15-5.33a6.06,6.06,0,0,1,4.36-5Zm-6.08,13.87a4.53,4.53,0,0,1-.41-4.93c6.25,6.29,18.11,19.56,18.74,26.53a26.18,26.18,0,0,0-7,3.49c.12-5.61-2.34-13.76-11.31-25.09Zm26.42,60.05a13.28,13.28,0,1,1,13.27-13.27,13.29,13.29,0,0,1-13.27,13.27Zm11.91-26.19a17.57,17.57,0,0,0-29.49,12.92V647h-4.56v-.14A22.14,22.14,0,0,1,1187.18,631Zm0,0" fill="#2163a3"/></g><path d="M607.5,469.27a5.46,5.46,0,0,0,.62,0,3.69,3.69,0,0,0,2.59-.84,2.55,2.55,0,0,0,.73-1.89,2.31,2.31,0,0,0-.85-1.84,3.79,3.79,0,0,0-2.44-.64,15.28,15.28,0,0,0-2.43.16v7.87h1.78Zm0-3.75a2.89,2.89,0,0,1,.75-.07c.9,0,1.41.44,1.41,1.17s-.6,1.3-1.56,1.3a2.48,2.48,0,0,1-.6-.05Zm0,0" fill="#2163a3"/><path d="M604.13,474.58H613a2,2,0,0,0,2-2v-8.89a2,2,0,0,0-2-2h-8.89a2,2,0,0,0-2,2v8.89a2,2,0,0,0,2,2Zm-.42-10.8a.54.54,0,0,1,.55-.55h8.64a.54.54,0,0,1,.55.55v8.64a.55.55,0,0,1-.55.56h-8.64a.55.55,0,0,1-.55-.56Zm0,0" fill="#2163a3"/><path d="M636,470.36a1.47,1.47,0,1,0-.09,2.93,1.47,1.47,0,0,0,.09-2.93Zm-.07,2.21a.75.75,0,0,1-.72-.77.74.74,0,1,1,.72.77Zm0,0" fill="#2163a3"/><path d="M639.45,469.07a4.45,4.45,0,0,0-3.38-1.72q-.35,0-.66,0a8.22,8.22,0,0,0-1.83-3.32l.1-3.08a.37.37,0,0,0-.14-.29.32.32,0,0,0-.31-.07l-.6.14a1.69,1.69,0,0,0-.82.47l-.27-1.45a.36.36,0,0,0-.35-.29l-.64,0,0-.53a.35.35,0,0,0-.35-.37.37.37,0,0,0-.38.35l-.05,1.83a.37.37,0,0,0,.35.38.38.38,0,0,0,.38-.36v-.58h.34l.39,2.08a1.51,1.51,0,0,0-.4.72l-1.08,1.12a.36.36,0,0,0,0,.51.41.41,0,0,0,.24.11.39.39,0,0,0,.28-.12L631,464a1.28,1.28,0,0,0,.16.27,10.91,10.91,0,0,1,1.29,2.19,3,3,0,0,1,.22,2.24,3.16,3.16,0,0,1-2.53,1.67,3.63,3.63,0,0,1-3.22-.79,1.18,1.18,0,0,1-.35-.91c.05-.55.56-1.19,1.51-1.91l.08-.09a1.37,1.37,0,0,0,.13-1.38,1.35,1.35,0,0,0-1.18-.77l-5.25-.15a1.92,1.92,0,0,0-2,1.7,11.14,11.14,0,0,0-1.23,1.4,6.14,6.14,0,0,0-1.42,3.4.37.37,0,0,0,.35.38l1.25,0s0,.06,0,.08a3,3,0,0,0,5.83.93l8.4.25a3,3,0,0,0,5.88-.58,3.05,3.05,0,0,0-.44-1.64l.92-.69a.37.37,0,0,0,.14-.24.33.33,0,0,0-.08-.27Zm-14.51-3.93,2.11.06a.61.61,0,0,1,.54.35.62.62,0,0,1,0,.5l-2.69-.08Zm-3.14-.09,2.41.07,0,.82-3.55-.1a1.18,1.18,0,0,1,1.16-.79Zm-.09,8.6a2.25,2.25,0,0,1-2.18-2.31.19.19,0,0,1,0-.08l.77,0v.08a1.46,1.46,0,0,0,1.42,1.51,1.47,1.47,0,0,0,1.52-1.42v-.08l.77,0v.08a2.25,2.25,0,0,1-2.31,2.18Zm-.68-2.27a.22.22,0,0,0,0-.08l1.48,0v.08a.75.75,0,0,1-1.49,0Zm3.16-.71-5.35-.16a4.64,4.64,0,0,1,.77-1.33,4.15,4.15,0,0,1,3.86-1.41c.73.07,1.19.28,1.36.61s0,1.21-.64,2.29Zm7.27,1.05-6.71-.2v0c0-.11,0-.22,0-.33.59-1,1.19-2.18.74-3.1a2.24,2.24,0,0,0-1.93-1,4.86,4.86,0,0,0-4.52,1.7,5.37,5.37,0,0,0-.95,1.74H618a8.13,8.13,0,0,1,2.38-3.92l6.51.19a3.06,3.06,0,0,0-1.06,1.8,1.91,1.91,0,0,0,.53,1.46,4.28,4.28,0,0,0,3.89,1,4.75,4.75,0,0,0,1.41-.44,4.43,4.43,0,0,0-.17,1.1v0Zm1.34-10.25.13,0,0,1.78c-.36-.42-.67-.75-.84-.93a1,1,0,0,1,.76-.82Zm-1.1,2.31a.74.74,0,0,1-.14-.56.79.79,0,0,1,.1-.27c1,1.09,3,3.4,3,4.58a4.36,4.36,0,0,0-1.2.55c0-.95-.33-2.34-1.79-4.3Zm4.17,10.29a2.25,2.25,0,1,1,2.31-2.18,2.25,2.25,0,0,1-2.31,2.18ZM638,469.7a3,3,0,0,0-5,2v0l-.77,0v0a3.75,3.75,0,0,1,3.85-3.63,3.79,3.79,0,0,1,2.6,1.15Zm0,0" fill="#2163a3"/><text transform="translate(593.44 488.79)" font-size="11.29" fill="#58595b" font-family="Roboto-Regular, Roboto">Lối vào - ra<tspan x="-7.38" y="13.55">bãi đỗ xe máy</tspan><tspan x="-5.94" y="27.09">Tầng hầm B1</tspan></text><polygon points="1725.32 381.95 1713.12 389.1 1725.41 396.08 1725.38 392.18 1740.09 392.08 1740.04 385.76 1725.34 385.85 1725.32 381.95" fill="#2163a3"/><polygon points="1729.5 425.55 1741.69 418.4 1729.4 411.42 1729.43 415.32 1714.73 415.42 1714.77 421.75 1729.47 421.65 1729.5 425.55" fill="#2163a3"/><path d="M1655.33,386.59a5.28,5.28,0,0,0,.61,0,3.68,3.68,0,0,0,2.59-.84,2.51,2.51,0,0,0,.74-1.89,2.32,2.32,0,0,0-.86-1.84,3.78,3.78,0,0,0-2.43-.64,15.28,15.28,0,0,0-2.43.16v7.87h1.78Zm0-3.75a2.8,2.8,0,0,1,.74-.07c.9,0,1.41.44,1.41,1.17s-.59,1.3-1.55,1.3a2.43,2.43,0,0,1-.6-.05Zm0,0" fill="#2163a3"/><path d="M1652,391.9h8.89a2,2,0,0,0,2-2V381a2,2,0,0,0-2-2H1652a2,2,0,0,0-2,2v8.89a2,2,0,0,0,2,2Zm-.42-10.8a.55.55,0,0,1,.54-.55h8.65a.55.55,0,0,1,.55.55v8.65a.55.55,0,0,1-.55.55h-8.65a.55.55,0,0,1-.54-.55Zm0,0" fill="#2163a3"/><path d="M1683.8,387.68a1.46,1.46,0,0,0-1.51,1.42,1.49,1.49,0,0,0,1.43,1.52,1.47,1.47,0,0,0,.08-2.94Zm-.06,2.21a.74.74,0,0,1-.72-.76.74.74,0,1,1,.72.76Zm0,0" fill="#2163a3"/><path d="M1687.28,386.39a4.46,4.46,0,0,0-3.39-1.71,3.5,3.5,0,0,0-.65,0,8.21,8.21,0,0,0-1.83-3.32l.09-3.09a.33.33,0,0,0-.13-.29.37.37,0,0,0-.32-.07l-.6.14a1.82,1.82,0,0,0-.82.47l-.27-1.44a.35.35,0,0,0-.34-.3l-.64,0,0-.52a.38.38,0,0,0-.36-.38.35.35,0,0,0-.37.35l-.06,1.84a.37.37,0,0,0,.36.37.35.35,0,0,0,.37-.35l0-.58h.34l.39,2.07a1.48,1.48,0,0,0-.4.72l-1.08,1.12a.37.37,0,0,0,0,.52.37.37,0,0,0,.24.1.39.39,0,0,0,.27-.11l.66-.68a1.17,1.17,0,0,0,.15.27,10.56,10.56,0,0,1,1.3,2.2,3,3,0,0,1,.22,2.24,3.18,3.18,0,0,1-2.53,1.66,3.63,3.63,0,0,1-3.22-.79,1.16,1.16,0,0,1-.35-.91c.05-.54.56-1.19,1.5-1.91l.08-.09a1.34,1.34,0,0,0-1-2.14l-5.25-.16a1.92,1.92,0,0,0-2,1.7,12.76,12.76,0,0,0-1.24,1.4,6.15,6.15,0,0,0-1.41,3.41.36.36,0,0,0,.35.37l1.24,0v.08a3,3,0,0,0,5.83.92l8.4.25a3,3,0,0,0,5.87-.57,2.92,2.92,0,0,0-.44-1.65l.92-.69a.36.36,0,0,0,.15-.24.38.38,0,0,0-.08-.27Zm-14.51-3.93,2.11.07a.58.58,0,0,1,.54.35.6.6,0,0,1,0,.49l-2.7-.08Zm-3.14-.09,2.41.07,0,.83-3.54-.11a1.19,1.19,0,0,1,1.16-.79Zm-.09,8.6a2.25,2.25,0,0,1-2.18-2.31v-.08l.78,0s0,.06,0,.08a1.49,1.49,0,0,0,1.43,1.52,1.47,1.47,0,0,0,1.51-1.43v-.08l.78,0v.08a2.25,2.25,0,0,1-2.31,2.18Zm-.68-2.27a.25.25,0,0,1,0-.08l1.47.05a.11.11,0,0,1,0,.08.74.74,0,0,1-.76.72.75.75,0,0,1-.72-.77ZM1672,388l-5.35-.16a4.77,4.77,0,0,1,.77-1.33,4.15,4.15,0,0,1,3.86-1.41c.73.07,1.19.28,1.35.62s0,1.2-.63,2.28Zm7.27,1.05-6.72-.2v0c0-.11,0-.22,0-.33.59-1,1.19-2.18.73-3.1a2.21,2.21,0,0,0-1.93-1,4.89,4.89,0,0,0-4.52,1.69,5.83,5.83,0,0,0-.95,1.75h-.1a8.13,8.13,0,0,1,2.38-3.92l6.51.2a3,3,0,0,0-1.06,1.79,1.91,1.91,0,0,0,.53,1.46,4.3,4.3,0,0,0,3.89,1,5.41,5.41,0,0,0,1.41-.44,4.35,4.35,0,0,0-.17,1.09v0Zm1.34-10.25.13,0,0,1.78c-.36-.42-.67-.75-.85-.93a1,1,0,0,1,.77-.82Zm-1.1,2.32a.79.79,0,0,1,0-.84c1,1.09,3,3.4,3,4.58a4.42,4.42,0,0,0-1.21.55c0-.94-.32-2.33-1.78-4.29Zm4.16,10.28a2.25,2.25,0,1,1,2.31-2.18,2.25,2.25,0,0,1-2.31,2.18Zm2.15-4.37a3,3,0,0,0-2-.85,3,3,0,0,0-3.06,2.89v0l-.77,0v0a3.73,3.73,0,0,1,6.44-2.48Zm0,0" fill="#2163a3"/><text transform="translate(1641.26 406.12)" font-size="11.29" fill="#58595b" font-family="Roboto-Regular, Roboto">Lối vào - ra<tspan x="-7.38" y="13.55">bãi đỗ xe máy</tspan><tspan x="-5.94" y="27.09">Tầng hầm B2</tspan></text><rect x="1399.03" y="608.89" width="37.23" height="74.92" fill="none" stroke="#6d6e71" stroke-miterlimit="10" stroke-width="0.25"/></g></g></svg>